<svg xmlns="http://www.w3.org/2000/svg" width="54.192" height="54.197" viewBox="0 0 54.192 54.197">
  <path id="Union_11" data-name="Union 11" d="M-6045.469,18425.7a.894.894,0,0,1-.893-.9v-1.9a14.486,14.486,0,0,1-1.79.111h-8.948a14.5,14.5,0,0,1-1.794-.111v1.9a.894.894,0,0,1-.893.9h-7.158a.9.9,0,0,1-.9-.9v-6.658a14.379,14.379,0,0,1-2.849-4.971h-3.413a.9.9,0,0,1-.9-.9v-7.158a.9.9,0,0,1,.9-.9h3.413a14.44,14.44,0,0,1,2.849-4.977v-6.658a.9.9,0,0,1,.9-.893,6.266,6.266,0,0,1,5.54,3.357,13.835,13.835,0,0,1,4.305-.67h8.948a14.329,14.329,0,0,1,14.316,14.316v1.34a2.959,2.959,0,0,1-.222,1.133,14.293,14.293,0,0,1-3.357,6.979v6.654a.9.9,0,0,1-.893.9Zm.569-4.541a.9.9,0,0,1,.328.7v2.057h5.369v-6.1a.907.907,0,0,1,.236-.611,12.5,12.5,0,0,0,2.525-4.078,3.327,3.327,0,0,1-.522.057,3.136,3.136,0,0,1-3.135-3.137v-1.34h1.794v1.34a1.338,1.338,0,0,0,1,1.3,1.343,1.343,0,0,0,1.508-.666,12.28,12.28,0,0,0,.171-1.979,12.542,12.542,0,0,0-12.527-12.527h-8.948a12.332,12.332,0,0,0-4.471.832.9.9,0,0,1-.694-.027.885.885,0,0,1-.467-.514,4.5,4.5,0,0,0-3.32-2.891v6.021a.9.9,0,0,1-.236.605,12.573,12.573,0,0,0-2.876,5.156.9.9,0,0,1-.865.656h-3.182v5.369h3.182a.9.9,0,0,1,.865.656,12.536,12.536,0,0,0,2.876,5.156.9.9,0,0,1,.236.611v6.107h5.369v-2.057a.9.9,0,0,1,.328-.7.894.894,0,0,1,.749-.184,12.659,12.659,0,0,0,2.506.25h8.948a12.643,12.643,0,0,0,2.5-.25.833.833,0,0,1,.183-.02A.9.9,0,0,1-6044.9,18421.154Zm12.855-12.461v-1.791h8.948v-3.578h-9.84v-1.789h.892v-17h-3.579v12.527h-1.79v-12.527h-3.579v8.947h-1.79v-8.947h-3.579v8.051h-1.79v-8.051h-3.579v8.051h-1.79v-8.051h-3.58v8.051h-1.794v-8.051h-3.579v6.262h-1.79v-6.262h-2.682a.9.9,0,0,1-.9-.9v-3.58a.9.9,0,0,1,.624-.852l22.372-7.162a.929.929,0,0,1,.546,0l22.372,7.162a.9.9,0,0,1,.62.852v3.58a.894.894,0,0,1-.893.9h-2.687v17h2.687a.89.89,0,0,1,.893.893v5.367a.9.9,0,0,1-.893.9Zm1.79-7.158h3.58v-17h-3.58Zm-35.8-20.828v2.035h42.955v-2.035l-21.475-6.871Zm0,25.3a2.682,2.682,0,0,1,2.687-2.682,2.681,2.681,0,0,1,2.682,2.682,2.686,2.686,0,0,1-2.682,2.688A2.687,2.687,0,0,1-6066.052,18406.006Zm1.79,0a.9.9,0,0,0,.9.9.894.894,0,0,0,.893-.9.893.893,0,0,0-.893-.893A.9.9,0,0,0-6064.262,18406.006Zm7.163-6.266v-1.785h8.948v1.785Zm9.841-21.475a2.687,2.687,0,0,1,2.687-2.687,2.686,2.686,0,0,1,2.682,2.688,2.681,2.681,0,0,1-2.682,2.682A2.682,2.682,0,0,1-6047.259,18378.266Zm1.79,0a.9.9,0,0,0,.9.9.894.894,0,0,0,.893-.9.894.894,0,0,0-.893-.9A.9.9,0,0,0-6045.469,18378.266Z" transform="translate(6075.25 -18371.748)" fill="#00214e" stroke="#fff" stroke-width="0.5"/>
</svg>
