<svg xmlns="http://www.w3.org/2000/svg" width="36.998" height="34.289" viewBox="0 0 36.998 34.289">
  <g id="download" transform="translate(0 -17.25)">
    <g id="Group_327" data-name="Group 327" transform="translate(0 17.25)">
      <path id="Path_1728" data-name="Path 1728" d="M35.938,228.307a1.056,1.056,0,0,0-1.06,1.06v9.642a4.757,4.757,0,0,1-4.75,4.75H6.87a4.757,4.757,0,0,1-4.75-4.75v-9.8a1.06,1.06,0,0,0-2.12,0v9.8a6.878,6.878,0,0,0,6.87,6.87H30.127a6.878,6.878,0,0,0,6.87-6.87v-9.642A1.061,1.061,0,0,0,35.938,228.307Z" transform="translate(0 -211.591)" fill="#5d7ab0"/>
      <path id="Path_1729" data-name="Path 1729" d="M143.282,43.122a1.067,1.067,0,0,0,.746.314,1.034,1.034,0,0,0,.746-.314l6.737-6.737a1.06,1.06,0,0,0-1.5-1.5l-4.923,4.931V18.31a1.06,1.06,0,0,0-2.12,0V39.816l-4.931-4.931a1.06,1.06,0,1,0-1.5,1.5Z" transform="translate(-125.529 -17.25)" fill="#5d7ab0"/>
    </g>
  </g>
</svg>
