<svg xmlns="http://www.w3.org/2000/svg" xmlns:xlink="http://www.w3.org/1999/xlink" width="70" height="78.926" viewBox="0 0 70 78.926">
  <defs>
    <linearGradient id="linear-gradient" y1="1" x2="1.404" y2="1" gradientUnits="objectBoundingBox">
      <stop offset="0" stop-color="#8598da"/>
      <stop offset="1" stop-color="#7fe3dd"/>
    </linearGradient>
  </defs>
  <path id="Path_2101" data-name="Path 2101" d="M98.9,74.885,95.411,54.444a5.818,5.818,0,0,0-4.078-4.617l-9.417-2.841a10.5,10.5,0,0,0-7.289-9.122c.3-.331.575-.661.828-.983A18.279,18.279,0,0,0,79.2,28.753h.727a3.431,3.431,0,0,0,3.427-3.427V23.569a3.451,3.451,0,0,0-1.776-3V16.348a1.156,1.156,0,1,0-2.312,0V21.09a7.124,7.124,0,0,0-1.537.445,1.16,1.16,0,0,0-.163.073c-.124.057-.248.116-.372.183V12.477A4.672,4.672,0,0,0,72.526,7.81h-3.19a4.8,4.8,0,0,0-3.027,1.08L66,9.146a3.229,3.229,0,0,1-4.087,0L61.6,8.89a4.8,4.8,0,0,0-3.027-1.08h-3.19a4.672,4.672,0,0,0-4.667,4.667v9.314c-.124-.067-.248-.127-.372-.183a1.159,1.159,0,0,0-.163-.073,7.126,7.126,0,0,0-1.537-.445V9.1a6.8,6.8,0,0,1,6.787-6.787H72.477A6.8,6.8,0,0,1,79.264,9.1v1.817a1.156,1.156,0,1,0,2.312,0V9.1a9.109,9.109,0,0,0-9.1-9.1H55.427a9.109,9.109,0,0,0-9.1,9.1V20.572a3.45,3.45,0,0,0-1.776,3v1.757a3.431,3.431,0,0,0,3.427,3.427h.727a18.277,18.277,0,0,0,3.744,8.128c.253.322.53.652.827.982a10.542,10.542,0,0,0-7.288,9.123l-9.418,2.841a5.818,5.818,0,0,0-4.078,4.617l-1.418,8.3a1.156,1.156,0,0,0,2.279.389l1.418-8.3a3.519,3.519,0,0,1,2.467-2.793l8.71-2.628V51.7a5.783,5.783,0,0,0-4.4,3.639,5.862,5.862,0,0,0-.343,1.57l-.842,10.805A2.938,2.938,0,0,0,43.3,70.878h1.441a1.156,1.156,0,1,0,0-2.312H43.3a.626.626,0,0,1-.624-.675l.842-10.805a3.548,3.548,0,0,1,.208-.951,3.5,3.5,0,0,1,3.272-2.227h.217a3.463,3.463,0,0,1,3.227,2.07,3.545,3.545,0,0,1,.271,1.11l.842,10.806a.626.626,0,0,1-.624.675H49.486a1.156,1.156,0,1,0,0,2.312h1.441a2.938,2.938,0,0,0,2.929-3.166l-.842-10.805a5.854,5.854,0,0,0-.447-1.832,5.722,5.722,0,0,0-4.307-3.384V48.714l3.973-1.2c.361.761,1.078,2.407,2.5,5.953,1.43,3.578,3.208,8.165,4.912,12.624a1.171,1.171,0,0,0,.042.11c1.138,2.977,2.241,5.892,3.185,8.408a1.156,1.156,0,0,0,2.164,0c.944-2.515,2.047-5.431,3.185-8.408a1.148,1.148,0,0,0,.042-.11c1.7-4.456,3.48-9.04,4.91-12.618,1.421-3.551,2.138-5.2,2.5-5.96l3.973,1.2v6.827a5.979,5.979,0,1,0,2.312,0V49.412l8.711,2.628a3.52,3.52,0,0,1,2.467,2.793l3.492,20.441a1.148,1.148,0,0,1-1.131,1.341H32.411a1.148,1.148,0,0,1-1.131-1.341l1.152-6.746a1.156,1.156,0,0,0-2.279-.389L29,74.885a3.459,3.459,0,0,0,3.41,4.041H95.493a3.459,3.459,0,0,0,3.41-4.041ZM79.278,23.445a4.96,4.96,0,0,1,1.116-.151,1.182,1.182,0,0,0,.565-.134,1.1,1.1,0,0,1,.082.409v1.757a1.117,1.117,0,0,1-1.115,1.115h-.647v-3Zm-30.652,3h-.647a1.117,1.117,0,0,1-1.115-1.115V23.569a1.1,1.1,0,0,1,.082-.409,1.179,1.179,0,0,0,.565.134,5.152,5.152,0,0,1,1.116.151v3Zm2.312,1.3V24.7a1.622,1.622,0,0,0,2.085-1.555V12.477a2.358,2.358,0,0,1,2.355-2.355h3.19a2.478,2.478,0,0,1,1.564.558l.313.256a5.541,5.541,0,0,0,7.014,0l.313-.256a2.477,2.477,0,0,1,1.564-.558h3.19a2.358,2.358,0,0,1,2.355,2.355v10.67A1.622,1.622,0,0,0,76.967,24.7v3.035c0,1.688-1.167,4.964-3.329,7.714a15.238,15.238,0,0,1-2.77,2.745,1.155,1.155,0,0,0-.1.078,11.266,11.266,0,0,1-13.625,0,1.172,1.172,0,0,0-.1-.078,15.25,15.25,0,0,1-2.77-2.745C52.1,32.7,50.938,29.425,50.938,27.737ZM71.524,46.411l-7.572,5.66-7.572-5.66a5.481,5.481,0,0,0,1.172-3.273V41.275a13.573,13.573,0,0,0,12.8,0v1.863A5.481,5.481,0,0,0,71.524,46.411Zm-17.073-1.29a3.16,3.16,0,0,0-1.949-.1l-.083.022-3.993,1.2a8.211,8.211,0,0,1,6.814-6.476v3.364A3.056,3.056,0,0,1,54.451,45.121ZM57.588,54.4l-.006-.016-.174-.439-.031-.078-.167-.42-.012-.029q-.257-.646-.5-1.239l-.035-.086-.135-.336-.049-.121-.128-.317-.037-.092-.225-.553-.06-.146-.085-.207-.09-.22-.034-.082-.026-.063q-.2-.486-.381-.918l0-.007-.187-.445-.092-.218,6.512,4.867-2.721,1.156-.014.006-1.136.483Zm2.758,7.077q-.342-.889-.689-1.783-.541-1.4-1.034-2.659l.431-.183L60.817,58.9Zm3.629,9.394a1.15,1.15,0,0,0-.118-.194c-.522-1.38-1.185-3.127-1.919-5.049l1.079-5.908h1.871l1.079,5.908C65.2,67.64,64.507,69.46,63.974,70.869Zm1.347-13.462H62.583l-1.3-1.506,2.665-1.132L66.617,55.9Zm2.926,2.285q-.346.893-.689,1.783L67.088,58.9l1.762-2.049.431.183Q68.787,58.3,68.247,59.692Zm4.427-11.106-.177.421-.024.057-.184.442-.013.031-.167.405-.031.076-.039.1-.077.187-.1.234-.031.077-.248.609-.04.1-.127.314-.05.125-.134.332-.038.095q-.235.585-.488,1.222l-.017.042-.166.417-.031.079-.175.441,0,.008-.192.487L68.989,54.4l-.012-.005-2.723-1.157,6.512-4.867Zm2.811-3.541h0a3.159,3.159,0,0,0-2.028.077,3.056,3.056,0,0,1-.789-1.983V39.772a8.147,8.147,0,0,1,6.818,6.479Zm8.97,16.366a3.669,3.669,0,1,1-3.669-3.669A3.673,3.673,0,0,1,84.454,61.41Z" transform="translate(-28.952)" fill="url(#linear-gradient)"/>
</svg>
