<svg id="search" xmlns="http://www.w3.org/2000/svg" width="19" height="19.257" viewBox="0 0 19 19.257">
  <path id="Path_6" data-name="Path 6" d="M19.031,20.09,14.414,15.41A8.005,8.005,0,0,1,9.1,17.425,8.166,8.166,0,0,1,1,9.213,8.166,8.166,0,0,1,9.1,1a8.169,8.169,0,0,1,8.1,8.213,8.55,8.55,0,0,1-1.06,4.06,7.5,7.5,0,0,1-.928,1.325l4.617,4.681a.584.584,0,0,1,.169.406.569.569,0,0,1-.969.406ZM9.1,2.149a7.06,7.06,0,0,0,0,14.119,7.06,7.06,0,0,0,0-14.119Z" transform="translate(-1 -1)" fill="#9a9a9a"/>
</svg>
