<svg xmlns="http://www.w3.org/2000/svg" width="54.338" height="54.339" viewBox="0 0 54.338 54.339">
  <g id="surface1" transform="translate(0.25 0.25)">
    <path id="Path_2321" data-name="Path 2321" d="M105.481,92.489a.877.877,0,0,0,.09-.378V69.678a3.589,3.589,0,0,0,0-7.178H66.089a3.589,3.589,0,0,0,0,7.178V92.111a.9.9,0,0,0,.9.9h7.178v13.46a6.289,6.289,0,0,0,6.281,6.281H91.637a8.115,8.115,0,0,0,6.924-3.92l7.3-12.164A3.526,3.526,0,0,0,105.481,92.489Zm-7.986.519h2.212L97.5,96.329ZM67.884,85.83h35.892v1.795H67.884Zm39.482-19.741a1.794,1.794,0,0,1-1.795,1.795V64.295A1.794,1.794,0,0,1,107.365,66.089Zm-3.589-1.795V84.035H67.884V64.295ZM64.295,66.089a1.794,1.794,0,0,1,1.795-1.795v3.589A1.794,1.794,0,0,1,64.295,66.089Zm3.589,25.125V89.419h35.892v1.795Zm36.437,4.527-7.3,12.163a6.313,6.313,0,0,1-5.384,3.051H80.446a4.492,4.492,0,0,1-4.487-4.487V93.008h3.589V96.6h1.795V93.008h3.589V96.6h1.795V93.008h3.589V96.6h1.795V93.008H95.7v5.384H93.008a8.085,8.085,0,0,0-8.076,8.076h1.795a6.289,6.289,0,0,1,6.281-6.281H96.6a.9.9,0,0,0,.747-.4l3.967-5.951a1.781,1.781,0,0,1,3.01,1.9Zm0,0" transform="translate(-58.911 -58.911)" fill="#00214e" stroke="#fff" stroke-width="0.5"/>
    <path id="Path_2322" data-name="Path 2322" d="M52.941,0H.9A.9.9,0,0,0,0,.9V13.46a.9.9,0,0,0,.9.9H5.384V12.562H1.795V1.795H52.044V12.562H48.455v1.795h4.487a.9.9,0,0,0,.9-.9V.9A.9.9,0,0,0,52.941,0Zm0,0" fill="#00214e" stroke="#fff" stroke-width="0.5"/>
    <path id="Path_2323" data-name="Path 2323" d="M188.4,138.46a1.794,1.794,0,0,1,1.795,1.795.9.9,0,0,0,.9.9h25.125a.9.9,0,0,0,.9-.9,1.794,1.794,0,0,1,1.795-1.795.9.9,0,0,0,.9-.9v-8.973a.9.9,0,0,0-.9-.9,1.794,1.794,0,0,1-1.795-1.795.9.9,0,0,0-.9-.9H191.089a.9.9,0,0,0-.9.9,1.794,1.794,0,0,1-1.795,1.795.9.9,0,0,0-.9.9v8.973A.9.9,0,0,0,188.4,138.46Zm9.87-5.384c0-3.463,2.415-6.281,5.384-6.281s5.384,2.818,5.384,6.281-2.415,6.281-5.384,6.281S198.268,136.539,198.268,133.076Zm17.161-6.281a3.606,3.606,0,0,0,2.579,2.579v7.4a3.606,3.606,0,0,0-2.579,2.579h-7.276a8.709,8.709,0,0,0,0-12.562Zm-26.135,2.579a3.606,3.606,0,0,0,2.579-2.579h7.276a8.709,8.709,0,0,0,0,12.562h-7.276a3.606,3.606,0,0,0-2.579-2.579Zm0,0" transform="translate(-176.732 -117.822)" fill="#00214e" stroke="#fff" stroke-width="0.5"/>
    <path id="Path_2324" data-name="Path 2324" d="M265.625,250h1.795v1.795h-1.795Zm0,0" transform="translate(-250.371 -235.643)" fill="#00214e" stroke="#fff" stroke-width="0.5"/>
    <path id="Path_2325" data-name="Path 2325" d="M640.625,250h1.795v1.795h-1.795Zm0,0" transform="translate(-603.835 -235.643)" fill="#00214e" stroke="#fff" stroke-width="0.5"/>
    <path id="Path_2326" data-name="Path 2326" d="M33.045,578.125H31.25a6.289,6.289,0,0,0,6.281,6.281v-1.795A4.492,4.492,0,0,1,33.045,578.125Zm0,0" transform="translate(-29.455 -544.925)" fill="#00214e" stroke="#fff" stroke-width="0.5"/>
  </g>
</svg>
