<svg xmlns="http://www.w3.org/2000/svg" xmlns:xlink="http://www.w3.org/1999/xlink" width="70" height="70" viewBox="0 0 70 70">
  <defs>
    <linearGradient id="linear-gradient" y1="1" x2="1.404" y2="1" gradientUnits="objectBoundingBox">
      <stop offset="0" stop-color="#8598da"/>
      <stop offset="1" stop-color="#7fe3dd"/>
    </linearGradient>
  </defs>
  <path id="Union_6" data-name="Union 6" d="M-11572.694,3291.747a1.367,1.367,0,0,1-.321-1.906l10.327-14.55a10.519,10.519,0,0,0,1.953-6.125v-21.2a1.83,1.83,0,0,0-.689-1.436,1.824,1.824,0,0,0-1.552-.362,1.831,1.831,0,0,0-1.442,1.8v16.821a9.551,9.551,0,0,1-2.463,6.411c-.069.082-.14.164-.213.242-.907.963-6.5,6.9-6.514,6.922a1.368,1.368,0,0,1-1.932.061,1.369,1.369,0,0,1-.062-1.935c.023-.026,6.587-7.01,6.587-7.01l.026-.026a2.305,2.305,0,0,0-.047-3.02,2.063,2.063,0,0,0-2.69-.344l-4.783,3.216a17.409,17.409,0,0,0-7.366,10.932l-2.238,10.678a1.371,1.371,0,0,1-1.339,1.085,1.337,1.337,0,0,1-.28-.029,1.367,1.367,0,0,1-1.057-1.62l2.238-10.675a20.141,20.141,0,0,1,8.516-12.642l4.783-3.216a4.808,4.808,0,0,1,6.1.625v-16.476a4.55,4.55,0,0,1,3.584-4.468,4.566,4.566,0,0,1,3.857.9,4.559,4.559,0,0,1,1.711,3.569v21.2a13.236,13.236,0,0,1-2.458,7.707l-10.327,14.553a1.374,1.374,0,0,1-1.118.575A1.354,1.354,0,0,1-11572.694,3291.747Zm-27.192-.832-2.238-10.678a17.413,17.413,0,0,0-7.366-10.932l-4.782-3.216a2.064,2.064,0,0,0-2.691.344,2.309,2.309,0,0,0-.046,3.023l.025.026,3.135,3.335c1.827,1.941,3.426,3.645,3.452,3.674a1.366,1.366,0,0,1-.062,1.932,1.368,1.368,0,0,1-1.932-.061c-.018-.02-.907-.966-2.11-2.247a.084.084,0,0,1-.014-.011l-1.407-1.5-2.982-3.164c-.073-.079-.143-.16-.213-.242a9.551,9.551,0,0,1-2.463-6.411v-16.821a1.831,1.831,0,0,0-1.444-1.8,1.819,1.819,0,0,0-1.55.362,1.826,1.826,0,0,0-.691,1.436v21.2a10.52,10.52,0,0,0,1.955,6.125l2.437,3.435a1.366,1.366,0,0,1-.324,1.906,1.349,1.349,0,0,1-.79.254,1.364,1.364,0,0,1-1.115-.578l-2.437-3.435a13.238,13.238,0,0,1-2.46-7.707v-21.2a4.552,4.552,0,0,1,1.713-3.569,4.566,4.566,0,0,1,3.857-.9,4.55,4.55,0,0,1,3.584,4.468v16.476a4.808,4.808,0,0,1,6.1-.625l4.783,3.216a20.145,20.145,0,0,1,8.516,12.642l2.238,10.675a1.369,1.369,0,0,1-1.057,1.62,1.357,1.357,0,0,1-.283.029A1.37,1.37,0,0,1-11599.887,3290.915Zm-15.327.508-2.06-2.9a1.366,1.366,0,0,1,.326-1.906,1.367,1.367,0,0,1,1.906.324l2.057,2.9a1.366,1.366,0,0,1-.323,1.906,1.348,1.348,0,0,1-.791.254A1.366,1.366,0,0,1-11615.214,3291.423Zm-4.882-6.878-.009-.012a1.362,1.362,0,0,1,.318-1.906,1.362,1.362,0,0,1,1.905.318l.009.012a1.366,1.366,0,0,1-.318,1.908,1.373,1.373,0,0,1-.794.254A1.363,1.363,0,0,1-11620.1,3284.544Zm31.973-19.386a1.369,1.369,0,0,1-1.369-1.369,1.367,1.367,0,0,1,1.369-1.366h1.549V3259.6a1.366,1.366,0,0,1,1.366-1.366,1.368,1.368,0,0,1,1.368,1.366v2.828h2.7v-3.546a5.661,5.661,0,0,0-4.357-5.524l-3.741-.893-2.507,5.705a1.371,1.371,0,0,1-1.252.817,1.368,1.368,0,0,1-1.252-.817l-2.513-5.714-3.75.9a5.664,5.664,0,0,0-4.356,5.524v3.549h2.705V3259.6a1.368,1.368,0,0,1,1.368-1.366,1.368,1.368,0,0,1,1.366,1.366v2.828h1.412a1.364,1.364,0,0,1,1.366,1.366,1.367,1.367,0,0,1-1.366,1.369h-8.218a1.368,1.368,0,0,1-1.368-1.369v-4.917c0-.166.009-.333.018-.5h-6.283a1.367,1.367,0,0,1-1.366-1.369v-2.553a6.4,6.4,0,0,1,4.933-6.248l2.431-.581v-.438a6.116,6.116,0,0,1-2.615-5.013v-3.161a6.125,6.125,0,0,1,6.117-6.119,6.086,6.086,0,0,1,3.983,1.479,8,8,0,0,1,7.4-4.987,8,8,0,0,1,7.395,4.976,6.093,6.093,0,0,1,3.972-1.468,6.125,6.125,0,0,1,6.117,6.119v3.161a6.107,6.107,0,0,1-2.618,5.013v.438l2.435.581a6.4,6.4,0,0,1,4.932,6.251v2.553a1.368,1.368,0,0,1-1.366,1.366h-6.3c.012.167.018.336.018.5v4.911a1.367,1.367,0,0,1-1.366,1.369Zm5.742-16.5a.12.12,0,0,1,0,.032,1.371,1.371,0,0,1-.624,1.15,1.359,1.359,0,0,1-.493.2l-2.052.493.686.164a8.387,8.387,0,0,1,5.816,4.943h5.56v-1.185a3.682,3.682,0,0,0-2.834-3.592l-3.481-.832a1.367,1.367,0,0,1-1.051-1.328v-.461a6.032,6.032,0,0,1-.768.05,5.975,5.975,0,0,1-.762-.05Zm-22.753.041a1.363,1.363,0,0,1-1.048,1.328l-3.481.832a3.682,3.682,0,0,0-2.834,3.592v1.185h5.542a8.385,8.385,0,0,1,5.808-4.946l.691-.167-2.037-.487a1.35,1.35,0,0,1-.487-.2,1.364,1.364,0,0,1-.624-1.15v-.452a5.906,5.906,0,0,1-.762.05,6.067,6.067,0,0,1-.768-.05Zm10.535,1.868,1.6,3.648,1.6-3.639v-.981a7.908,7.908,0,0,1-1.588.161,7.948,7.948,0,0,1-1.616-.164Zm5.938-2.087v.091a6.782,6.782,0,0,1,1.1-.374l2.442-.584v-.426a6.212,6.212,0,0,1-1.173-1.071A8.1,8.1,0,0,1-11588.66,3248.484Zm-12.21-1.293v.426l2.442.584a6.362,6.362,0,0,1,1.095.371v-.1a8.051,8.051,0,0,1-2.353-2.358A6.251,6.251,0,0,1-11600.87,3247.191Zm2.635-5.419a5.257,5.257,0,0,0,5.253,5.253,5.259,5.259,0,0,0,5.247-5.052v-2.232l-2.819-1.655a8.628,8.628,0,0,1-5.81,2.244h-1.871Zm13.237,0c0,.067,0,.134,0,.2v.2a3.387,3.387,0,0,0,3.385,3.385,3.387,3.387,0,0,0,3.383-3.385v-.651h-1.908a12.683,12.683,0,0,1-4.856-.966Zm-22.751.4a3.387,3.387,0,0,0,3.383,3.385,3.387,3.387,0,0,0,3.385-3.385v-1.62a12.7,12.7,0,0,1-4.861.969h-1.906Zm23.022-4.5a9.979,9.979,0,0,0,4.585,1.118h1.9a3.391,3.391,0,0,0-3.377-3.16A3.4,3.4,0,0,0-11584.727,3237.669Zm-23.017,1.118h1.9a9.961,9.961,0,0,0,4.584-1.118,3.389,3.389,0,0,0-3.107-2.043A3.391,3.391,0,0,0-11607.743,3238.786Zm9.508-1.418v.228h1.871a5.893,5.893,0,0,0,4.525-2.113,1.363,1.363,0,0,1,1.739-.3l2.3,1.351a5.259,5.259,0,0,0-5.186-4.415A5.257,5.257,0,0,0-11598.235,3237.368Zm4.27,27.391a1.374,1.374,0,0,1-.4-.969,1.367,1.367,0,0,1,.4-.966,1.373,1.373,0,0,1,.966-.4,1.376,1.376,0,0,1,.966.4,1.378,1.378,0,0,1,.4.966,1.385,1.385,0,0,1-.4.969,1.376,1.376,0,0,1-.966.4A1.373,1.373,0,0,1-11593.966,3264.759Zm5.979-36.338a1.368,1.368,0,0,1,0-1.935l1.424-1.424a1.366,1.366,0,0,1,1.933,0,1.367,1.367,0,0,1,0,1.935l-1.422,1.424a1.367,1.367,0,0,1-.966.4A1.376,1.376,0,0,1-11587.986,3228.421Zm-11.982-.026-1.436-1.433a1.368,1.368,0,0,1,0-1.935,1.365,1.365,0,0,1,1.932,0l1.436,1.433a1.368,1.368,0,0,1,0,1.935,1.362,1.362,0,0,1-.966.4A1.364,1.364,0,0,1-11599.969,3228.395Zm5.6-2.982v-2.046A1.368,1.368,0,0,1-11593,3222a1.368,1.368,0,0,1,1.366,1.366v2.046a1.368,1.368,0,0,1-1.366,1.369A1.368,1.368,0,0,1-11594.368,3225.412Z" transform="translate(11628.001 -3222.001)" fill="url(#linear-gradient)"/>
</svg>
