<svg xmlns="http://www.w3.org/2000/svg" xmlns:xlink="http://www.w3.org/1999/xlink" width="70" height="70" viewBox="0 0 70 70">
  <defs>
    <linearGradient id="linear-gradient" y1="1" x2="1.404" y2="1" gradientUnits="objectBoundingBox">
      <stop offset="0" stop-color="#8598da"/>
      <stop offset="1" stop-color="#7fe3dd"/>
    </linearGradient>
  </defs>
  <path id="Union_5" data-name="Union 5" d="M-11580.165,3287.334a4.654,4.654,0,0,1,.29-1.622l-7.614-3.677a12.861,12.861,0,0,1-12.078,9.958h-.039l-.1,0-.11,0h-.375l-.1,0-.106,0h-.031a12.853,12.853,0,0,1-12.352-11.66h-6.031a4.677,4.677,0,0,1-4.519,3.5,4.672,4.672,0,0,1-4.669-4.666,4.673,4.673,0,0,1,4.669-4.666,4.677,4.677,0,0,1,4.519,3.5h6.031a12.85,12.85,0,0,1,12.781-11.664,12.844,12.844,0,0,1,11.163,6.5l4.694-3.521a12.805,12.805,0,0,1-.688-4.15,12.856,12.856,0,0,1,9.636-12.431l-5.236-6.982a12.754,12.754,0,0,1-6.3,1.905h-.039l-.1,0-.109,0h-.375l-.109,0-.1,0h-.039a12.86,12.86,0,0,1-12.186-10.476l-5.466,4.679a12.774,12.774,0,0,1,2.905,7.557l6.49,5.059a4.64,4.64,0,0,1,2.855-.978,4.67,4.67,0,0,1,4.666,4.666,4.67,4.67,0,0,1-4.666,4.666,4.67,4.67,0,0,1-4.666-4.666,4.646,4.646,0,0,1,.38-1.845l-5.241-4.084a12.858,12.858,0,0,1-12.206,10.588h-.039l-.1,0-.109,0h-.375l-.109,0-.1,0h-.039A12.849,12.849,0,0,1-11628,3250a12.852,12.852,0,0,1,11.667-12.782v-6.034a4.673,4.673,0,0,1-3.5-4.519,4.67,4.67,0,0,1,4.666-4.666,4.67,4.67,0,0,1,4.666,4.666,4.673,4.673,0,0,1-3.5,4.519v6.034a12.781,12.781,0,0,1,7.105,2.976l6.905-5.908a12.851,12.851,0,0,1,12.823-12.287,12.854,12.854,0,0,1,12.683,10.86l8.8,4.247a4.644,4.644,0,0,1,3.017-1.109,4.671,4.671,0,0,1,4.667,4.666,4.671,4.671,0,0,1-4.667,4.666,4.671,4.671,0,0,1-4.666-4.666,4.637,4.637,0,0,1,.291-1.623l-7.307-3.527a12.811,12.811,0,0,1-4.22,8.838l6,7.992q.286-.012.574-.013a12.849,12.849,0,0,1,12.834,12.834,12.847,12.847,0,0,1-12.4,12.824h-.033l-.106,0-.1,0h-.376l-.1,0-.106,0h-.033a12.839,12.839,0,0,1-10.729-6.5l-4.694,3.521a12.8,12.8,0,0,1,.688,4.149c0,.144,0,.289-.008.432l8.656,4.179a4.645,4.645,0,0,1,3.019-1.111,4.673,4.673,0,0,1,4.666,4.669,4.67,4.67,0,0,1-4.666,4.666A4.67,4.67,0,0,1-11580.165,3287.334Zm2.331,0a2.335,2.335,0,0,0,2.335,2.332,2.335,2.335,0,0,0,2.334-2.332,2.337,2.337,0,0,0-2.334-2.334A2.338,2.338,0,0,0-11577.834,3287.334Zm-26.833-1.15v2.378a10.572,10.572,0,0,0,9.333,0v-2.378a1.237,1.237,0,0,0-1.281-1.185h-6.768A1.238,1.238,0,0,0-11604.667,3286.185Zm-5.834-7.019a10.479,10.479,0,0,0,3.5,7.822v-.8a3.572,3.572,0,0,1,3.616-3.52h6.768a3.573,3.573,0,0,1,3.615,3.52v.8a10.476,10.476,0,0,0,3.5-7.819,10.511,10.511,0,0,0-10.5-10.5A10.512,10.512,0,0,0-11610.5,3279.166Zm-15.166,0a2.338,2.338,0,0,0,2.335,2.335,2.337,2.337,0,0,0,2.332-2.335,2.335,2.335,0,0,0-2.332-2.332A2.335,2.335,0,0,0-11625.667,3279.166Zm49-6.98v2.378a10.57,10.57,0,0,0,9.332,0v-2.378a1.237,1.237,0,0,0-1.281-1.185h-6.771A1.236,1.236,0,0,0-11576.666,3272.186Zm8.051-3.52a3.573,3.573,0,0,1,3.616,3.52v.8a10.476,10.476,0,0,0,3.5-7.819,10.511,10.511,0,0,0-10.5-10.5,10.511,10.511,0,0,0-10.5,10.5,10.476,10.476,0,0,0,3.5,7.819v-.8a3.572,3.572,0,0,1,3.615-3.517Zm-26.719-10.5a2.337,2.337,0,0,0,2.334,2.334,2.338,2.338,0,0,0,2.335-2.334,2.338,2.338,0,0,0-2.335-2.335,2.332,2.332,0,0,0-1.829.886l-.018.025-.024.03A2.321,2.321,0,0,0-11595.334,3258.167Zm-24.5-1.147v2.378a10.57,10.57,0,0,0,9.332,0v-2.378a1.239,1.239,0,0,0-1.28-1.188h-6.771A1.24,1.24,0,0,0-11619.833,3257.02Zm8.052-3.519a3.572,3.572,0,0,1,3.615,3.519v.8a10.476,10.476,0,0,0,3.5-7.819,10.512,10.512,0,0,0-10.5-10.5,10.512,10.512,0,0,0-10.5,10.5,10.476,10.476,0,0,0,3.5,7.819v-.8a3.573,3.573,0,0,1,3.616-3.516Zm19.948-11.647v2.378a10.593,10.593,0,0,0,9.333,0v-2.378a1.24,1.24,0,0,0-1.281-1.188h-6.771A1.24,1.24,0,0,0-11591.833,3241.854Zm26.834-1.188a2.336,2.336,0,0,0,2.331,2.334,2.338,2.338,0,0,0,2.335-2.334,2.335,2.335,0,0,0-2.335-2.332A2.333,2.333,0,0,0-11565,3240.666Zm-18.782-2.332a3.571,3.571,0,0,1,3.613,3.52v.8a10.481,10.481,0,0,0,3.5-7.824,10.512,10.512,0,0,0-10.5-10.5,10.512,10.512,0,0,0-10.5,10.471.529.529,0,0,1,0,.056,10.478,10.478,0,0,0,3.5,7.794v-.8a3.572,3.572,0,0,1,3.615-3.517Zm-33.72-11.667a2.335,2.335,0,0,0,2.334,2.332,2.335,2.335,0,0,0,2.335-2.332,2.338,2.338,0,0,0-2.335-2.335A2.337,2.337,0,0,0-11617.5,3226.667Zm12.834,49A4.671,4.671,0,0,1-11600,3271a4.671,4.671,0,0,1,4.667,4.666,4.671,4.671,0,0,1-4.667,4.666A4.671,4.671,0,0,1-11604.667,3275.667Zm2.332,0A2.335,2.335,0,0,0-11600,3278a2.335,2.335,0,0,0,2.335-2.332,2.338,2.338,0,0,0-2.335-2.335A2.337,2.337,0,0,0-11602.335,3275.667Zm25.669-14A4.672,4.672,0,0,1-11572,3257a4.673,4.673,0,0,1,4.666,4.666,4.673,4.673,0,0,1-4.666,4.669A4.673,4.673,0,0,1-11576.666,3261.665Zm2.331,0A2.338,2.338,0,0,0-11572,3264a2.337,2.337,0,0,0,2.334-2.335,2.335,2.335,0,0,0-2.334-2.332A2.335,2.335,0,0,0-11574.335,3261.665Zm-45.5-15.166a4.67,4.67,0,0,1,4.666-4.666,4.67,4.67,0,0,1,4.666,4.666,4.67,4.67,0,0,1-4.666,4.666A4.67,4.67,0,0,1-11619.833,3246.5Zm2.332,0a2.337,2.337,0,0,0,2.334,2.335,2.338,2.338,0,0,0,2.335-2.335,2.335,2.335,0,0,0-2.335-2.332A2.335,2.335,0,0,0-11617.5,3246.5Zm25.668-15.166a4.671,4.671,0,0,1,4.667-4.666,4.671,4.671,0,0,1,4.666,4.666,4.671,4.671,0,0,1-4.666,4.666A4.671,4.671,0,0,1-11591.833,3231.333Zm2.332,0a2.338,2.338,0,0,0,2.335,2.334,2.337,2.337,0,0,0,2.334-2.334,2.337,2.337,0,0,0-2.334-2.335A2.338,2.338,0,0,0-11589.5,3231.333Z" transform="translate(11628.001 -3222.001)" fill="url(#linear-gradient)"/>
</svg>
