<svg xmlns="http://www.w3.org/2000/svg" width="54.338" height="54.339" viewBox="0 0 54.338 54.339">
  <g id="surface1" transform="translate(0.25 0.25)">
    <path id="Path_2327" data-name="Path 2327" d="M8.973,9.506V4.487A4.492,4.492,0,0,1,13.46,0H49.352a4.492,4.492,0,0,1,4.487,4.487V24.227a4.478,4.478,0,0,1-4.024,4.44l-3.373,8.756A4.488,4.488,0,0,1,40.642,40L19.579,31.883A12.971,12.971,0,0,1,18.462,43.4l-.516.824v8.716a.9.9,0,0,1-.9.9H.9a.9.9,0,0,1-.9-.9V23.322a11.743,11.743,0,0,1,3.438-8.271Zm0,5.366L6.25,21.942A2.692,2.692,0,0,0,7.8,25.421l1.557.6a4.488,4.488,0,0,1-.379-1.795Zm43.071,9.355V4.487a2.692,2.692,0,0,0-2.692-2.692H13.46a2.692,2.692,0,0,0-2.692,2.692v5.7h.008l-.008.02V24.227a2.73,2.73,0,0,0,.061.465l8.219-8.22a4.787,4.787,0,0,1,6.909,6.62l-3.5,3.827h26.9A2.692,2.692,0,0,0,52.044,24.227Zm-11.5,4.487,6.381,2.457.944-2.457Zm.739,9.608a2.692,2.692,0,0,0,3.48-1.544l1.514-3.937L35.57,28.714v-.005H20.809L19.642,29.98ZM1.795,52.044H16.152V44.865H1.795Zm0-8.973H16.551l.389-.622a11.189,11.189,0,0,0,.227-11.492.9.9,0,0,1,.118-1.052l7.353-8.022a2.993,2.993,0,0,0-4.321-4.139l-14.3,14.3L4.749,30.771l3.32-3.32-.921-.359a4.487,4.487,0,0,1-2.573-5.8l3.037-7.886L4.707,16.322a9.937,9.937,0,0,0-2.912,7Zm0,0" fill="#00214e" stroke="#fff" stroke-width="0.5"/>
    <path id="Path_2328" data-name="Path 2328" d="M64.833,71.473A2.333,2.333,0,0,1,62.5,69.14V64.833A2.333,2.333,0,0,1,64.833,62.5H69.14a2.333,2.333,0,0,1,2.333,2.333V69.14a2.333,2.333,0,0,1-2.333,2.333Zm4.845-2.333V67.884H67.884V66.089h1.795V64.833a.539.539,0,0,0-.538-.538H64.833a.539.539,0,0,0-.538.538v1.256h1.795v1.795H64.295V69.14a.539.539,0,0,0,.538.538H69.14A.539.539,0,0,0,69.678,69.14Zm0,0" transform="translate(-21.224 -58.911)" fill="#00214e" stroke="#fff" stroke-width="0.5"/>
    <path id="Path_2329" data-name="Path 2329" d="M81.714,265.625H78.125v1.795h3.589Zm0,0" transform="translate(-32.362 -250.371)" fill="#00214e" stroke="#fff" stroke-width="0.5"/>
    <path id="Path_2330" data-name="Path 2330" d="M81.714,359.375H78.125v1.795h3.589Zm0,0" transform="translate(-32.362 -338.737)" fill="#00214e" stroke="#fff" stroke-width="0.5"/>
    <path id="Path_2331" data-name="Path 2331" d="M362.964,359.375h-3.589v1.795h3.589Zm0,0" transform="translate(-329.764 -338.737)" fill="#00214e" stroke="#fff" stroke-width="0.5"/>
    <path id="Path_2332" data-name="Path 2332" d="M175.464,265.625h-3.589v1.795h3.589Zm0,0" transform="translate(-131.496 -250.371)" fill="#00214e" stroke="#fff" stroke-width="0.5"/>
    <path id="Path_2333" data-name="Path 2333" d="M269.214,265.625h-3.589v1.795h3.589Zm0,0" transform="translate(-230.63 -250.371)" fill="#00214e" stroke="#fff" stroke-width="0.5"/>
    <path id="Path_2334" data-name="Path 2334" d="M362.964,265.625h-3.589v1.795h3.589Zm0,0" transform="translate(-329.764 -250.371)" fill="#00214e" stroke="#fff" stroke-width="0.5"/>
    <path id="Path_2335" data-name="Path 2335" d="M658.045,78.125H656.25v2.692h1.795Zm0,0" transform="translate(-641.893 -73.638)" fill="#00214e" stroke="#fff" stroke-width="0.5"/>
    <path id="Path_2336" data-name="Path 2336" d="M595.545,78.125H593.75v2.692h1.795Zm0,0" transform="translate(-575.804 -73.638)" fill="#00214e" stroke="#fff" stroke-width="0.5"/>
    <path id="Path_2337" data-name="Path 2337" d="M533.045,78.125H531.25v2.692h1.795Zm0,0" transform="translate(-509.715 -73.638)" fill="#00214e" stroke="#fff" stroke-width="0.5"/>
    <path id="Path_2338" data-name="Path 2338" d="M470.545,78.125H468.75v2.692h1.795Zm0,0" transform="translate(-443.625 -73.638)" fill="#00214e" stroke="#fff" stroke-width="0.5"/>
    <path id="Path_2339" data-name="Path 2339" d="M689.295,812.5H687.5v1.795h1.795Zm0,0" transform="translate(-674.938 -765.84)" fill="#00214e" stroke="#fff" stroke-width="0.5"/>
  </g>
</svg>
