<svg version="1.0" xmlns="http://www.w3.org/2000/svg" width="20" height="20" viewBox="0 0 1254 1280"><g fill="#fff"><path d="M591 1c-33.8 2.2-74.3 8.4-106 16.1-70.2 17-137 46.2-197.7 86.6-55.8 37-106.8 85.1-147.9 139.6C41.8 372.6-1.3 538 21.1 697.6c1 7.8 1.7 14.8 1.4 15.7-.4.8.3 8.6 1.5 17.3C39.2 847 87.5 956.4 163.2 1046.1c13.2 15.7 42.5 45.8 58.7 60.2C368.5 1237.4 572 1289.8 763 1245.5c82.6-19.1 160.3-55.1 228-105.5 36.8-27.4 69.1-58 103.4-98 1.2-1.4 7.4-9.3 13.7-17.5 52.1-67.5 89.3-144.8 109.3-227 4.2-17.1 7.9-35 10.6-51.3 2.1-13.2 2.3-15.1.9-11.2-.8 2.2-.8 2.1-.4-.7.2-1.8 1.5-9.6 2.9-17.5 6.5-37.4 8.1-59 8-104.8 0-49.1-2.4-74.4-11-118-29.1-147.5-112-280.1-231.7-370.1C904.9 54.7 798 13.5 682 2.5 662.4.6 610.1-.2 591 1zM23.7 718.2c-.3.7-.5.2-.5-1.2s.2-1.9.5-1.3c.2.7.2 1.9 0 2.5zm1204 22c-.3.8-.6.5-.6-.6-.1-1.1.2-1.7.5-1.3.3.3.4 1.2.1 1.9z"/><path d="M21.1 710.6c0 1.1.3 1.4.6.6.3-.7.2-1.6-.1-1.9-.3-.4-.6.2-.5 1.3z"/></g></svg>