<svg xmlns="http://www.w3.org/2000/svg" width="103.276" height="103.423" viewBox="0 0 103.276 103.423">
  <g id="Group_309" data-name="Group 309" transform="translate(7478.638 11360.359)">
    <g id="warranty" transform="translate(-7466.352 -11347.704)">
      <path id="Path_65" data-name="Path 65" d="M77.094,42.775a8.818,8.818,0,0,1-8.807-8.807V32.71H55.707V0H13.669L.352,13.318V72.969h50.76a30.339,30.339,0,0,0,7.874,4.93l.5.213.5-.213A30.282,30.282,0,0,0,78.352,50.033V42.775ZM4.647,12.581,12.932,4.3v8.286ZM7.9,15.1h7.548V7.548h32.71V20.129H7.9Zm-5.032,0H5.384v7.548H50.675V5.032H15.448V2.516H53.191V32.71H50.675v1.258a8.818,8.818,0,0,1-8.807,8.807H40.61v7.258a30.275,30.275,0,0,0,7.915,20.42H2.868ZM75.836,50.033A27.77,27.77,0,0,1,59.481,75.369,27.769,27.769,0,0,1,43.126,50.033V45.221a11.342,11.342,0,0,0,9.994-9.994H65.841a11.342,11.342,0,0,0,9.994,9.994v4.811Zm0,0" fill="#007dc4"/>
      <path id="Path_66" data-name="Path 66" d="M334.574,277.512l3.288-7.673-2.312-.99-3.173,7.4a8.84,8.84,0,1,0,2.2,1.259Zm-5.416,13.22a6.29,6.29,0,0,1,0-12.581,6.225,6.225,0,0,1,2.223.426l-2.784,6.494-2.516-1.677-1.4,2.094,5.032,3.355,3.816-8.9a6.279,6.279,0,0,1-4.376,10.793Zm0,0" transform="translate(-269.677 -226.569)" fill="#007dc4"/>
      <path id="Path_67" data-name="Path 67" d="M32.352,310.645h32.71V288H32.352Zm2.516-20.129H62.545v17.613H34.868Zm0,0" transform="translate(-26.968 -242.709)" fill="#007dc4"/>
      <path id="Path_68" data-name="Path 68" d="M64.352,160H92.029v2.516H64.352Zm0,0" transform="translate(-53.935 -134.838)" fill="#007dc4"/>
      <path id="Path_69" data-name="Path 69" d="M32.352,160h2.516v2.516H32.352Zm0,0" transform="translate(-26.968 -134.838)" fill="#007dc4"/>
      <path id="Path_70" data-name="Path 70" d="M32.352,192h32.71v2.516H32.352Zm0,0" transform="translate(-26.968 -161.806)" fill="#007dc4"/>
      <path id="Path_71" data-name="Path 71" d="M32.352,224h32.71v2.516H32.352Zm0,0" transform="translate(-26.968 -188.774)" fill="#007dc4"/>
      <path id="Path_72" data-name="Path 72" d="M32.352,256h32.71v2.516H32.352Zm0,0" transform="translate(-26.968 -215.742)" fill="#007dc4"/>
    </g>
    <g id="warranty-2" data-name="warranty" transform="translate(-7478.99 -11360.359)" opacity="0.03">
      <path id="Path_65-2" data-name="Path 65" d="M101.962,56.635A11.675,11.675,0,0,1,90.3,44.975V43.309H73.644V0H17.985L.352,17.633v78.98H67.56a40.169,40.169,0,0,0,10.426,6.528l.656.281.656-.281a40.1,40.1,0,0,0,24.33-36.9v-9.61ZM6.038,16.657l10.97-10.97v10.97Zm4.308,3.331H20.34V9.994H63.65V26.652h-53.3Zm-6.663,0H7.014v9.994H66.981V6.663H20.34V3.331H70.313V43.309H66.981v1.666a11.675,11.675,0,0,1-11.66,11.66H53.655v9.61A40.085,40.085,0,0,0,64.135,93.282H3.683ZM100.3,66.245A36.768,36.768,0,0,1,78.642,99.792,36.767,36.767,0,0,1,56.987,66.245v-6.37A15.017,15.017,0,0,0,70.219,46.642H87.062a15.017,15.017,0,0,0,13.232,13.232v6.37Zm0,0" fill="#007dc4"/>
      <path id="Path_66-2" data-name="Path 66" d="M339.183,280.319l4.354-10.16-3.061-1.311-4.2,9.8a11.7,11.7,0,1,0,2.909,1.667Zm-7.171,17.5a8.329,8.329,0,0,1,0-16.658,8.242,8.242,0,0,1,2.944.564l-3.686,8.6-3.331-2.22-1.848,2.772,6.663,4.443,5.053-11.79a8.314,8.314,0,0,1-5.794,14.291Zm0,0" transform="translate(-253.37 -212.869)" fill="#007dc4"/>
      <path id="Path_67-2" data-name="Path 67" d="M32.352,317.983H75.661V288H32.352Zm3.331-26.652H72.329v23.32H35.683Zm0,0" transform="translate(-25.337 -228.033)" fill="#007dc4"/>
      <path id="Path_68-2" data-name="Path 68" d="M64.352,160H101v3.331H64.352Zm0,0" transform="translate(-50.674 -126.685)" fill="#007dc4"/>
      <path id="Path_69-2" data-name="Path 69" d="M32.352,160h3.331v3.331H32.352Zm0,0" transform="translate(-25.337 -126.685)" fill="#007dc4"/>
      <path id="Path_70-2" data-name="Path 70" d="M32.352,192H75.661v3.332H32.352Zm0,0" transform="translate(-25.337 -152.022)" fill="#007dc4"/>
      <path id="Path_71-2" data-name="Path 71" d="M32.352,224H75.661v3.332H32.352Zm0,0" transform="translate(-25.337 -177.359)" fill="#007dc4"/>
      <path id="Path_72-2" data-name="Path 72" d="M32.352,256H75.661v3.332H32.352Zm0,0" transform="translate(-25.337 -202.696)" fill="#007dc4"/>
    </g>
    <g id="warranty-3" data-name="warranty" transform="translate(-7472.721 -11354.082)" opacity="0.1">
      <path id="Path_65-3" data-name="Path 65" d="M89.627,49.76A10.258,10.258,0,0,1,79.382,39.515V38.052H64.747V0h-48.9L.352,15.493V84.885H59.4a35.293,35.293,0,0,0,9.16,5.735l.577.247.577-.247A35.228,35.228,0,0,0,91.09,58.2V49.76ZM5.348,14.635,14.987,5v9.639Zm3.785,2.927h8.781V8.781H55.966V23.416H9.133Zm-5.854,0H6.206v8.781H58.893V5.854H17.914V2.927H61.82V38.052H58.893v1.464A10.258,10.258,0,0,1,48.648,49.76H47.184V58.2a35.219,35.219,0,0,0,9.207,23.755H3.279ZM88.163,58.2A32.3,32.3,0,0,1,69.137,87.677,32.3,32.3,0,0,1,50.111,58.2v-5.6A13.194,13.194,0,0,0,61.737,40.98h14.8A13.194,13.194,0,0,0,88.162,52.606v5.6Zm0,0" fill="#007dc4"/>
      <path id="Path_66-3" data-name="Path 66" d="M336.9,278.926,340.722,270l-2.69-1.152-3.691,8.613a10.283,10.283,0,1,0,2.555,1.465ZM330.6,294.3a7.318,7.318,0,0,1,0-14.635,7.241,7.241,0,0,1,2.586.5l-3.239,7.555-2.927-1.951-1.624,2.435,5.854,3.9,4.439-10.359A7.3,7.3,0,0,1,330.6,294.3Zm0,0" transform="translate(-261.459 -219.665)" fill="#007dc4"/>
      <path id="Path_67-3" data-name="Path 67" d="M32.352,314.344H70.4V288H32.352Zm2.927-23.416h32.2v20.489h-32.2Zm0,0" transform="translate(-26.146 -235.313)" fill="#007dc4"/>
      <path id="Path_68-3" data-name="Path 68" d="M64.352,160h32.2v2.927h-32.2Zm0,0" transform="translate(-52.292 -130.729)" fill="#007dc4"/>
      <path id="Path_69-3" data-name="Path 69" d="M32.352,160h2.927v2.927H32.352Zm0,0" transform="translate(-26.146 -130.729)" fill="#007dc4"/>
      <path id="Path_70-3" data-name="Path 70" d="M32.352,192H70.4v2.927H32.352Zm0,0" transform="translate(-26.146 -156.875)" fill="#007dc4"/>
      <path id="Path_71-3" data-name="Path 71" d="M32.352,224H70.4v2.927H32.352Zm0,0" transform="translate(-26.146 -183.021)" fill="#007dc4"/>
      <path id="Path_72-3" data-name="Path 72" d="M32.352,256H70.4v2.927H32.352Zm0,0" transform="translate(-26.146 -209.167)" fill="#007dc4"/>
    </g>
  </g>
</svg>
