<svg xmlns="http://www.w3.org/2000/svg" width="105.202" height="105.172" viewBox="0 0 105.202 105.172">
  <g id="Group_315" data-name="Group 315" transform="translate(7078.175 11359.788)">
    <g id="Group_312" data-name="Group 312" transform="translate(-7985 -13405)">
      <g id="value" transform="translate(894.055 2032.565)">
        <path id="Path_59" data-name="Path 59" d="M96.532,285.456l-.413.223a5.694,5.694,0,0,0-6.765-1.694l-.023.012-.976.525a7.409,7.409,0,0,0-8.484-.767l-5.253,2.857h-6.99a10.1,10.1,0,0,1-4.371-1l-.962-.465a16.5,16.5,0,0,0-17.169,1.677c-.023.017-.045.035-.066.055l-2.322,2.067a8.052,8.052,0,0,1-3.039,1.694l-1.319-4.328a1.045,1.045,0,0,0-1-.74H26.153a1.045,1.045,0,0,0-1.038,1.172l3.743,30.689a1.045,1.045,0,0,0,1.038.919H46.737a1.045,1.045,0,0,0,1-1.35l-2.212-7.26,6.891-4.355a4.146,4.146,0,0,1,3.025-.391l.065.014,14.017,2.581A18.138,18.138,0,0,0,80.731,306a1.035,1.035,0,0,0,.128-.075L105.1,289.284a1.045,1.045,0,0,0,.3-1.4A6.655,6.655,0,0,0,96.532,285.456Zm-6.222.388a3.569,3.569,0,0,1,3.9.863l-9.193,4.96-.54.284a7.97,7.97,0,0,0-1.259-2.287Zm-9.427-.259.025-.014a5.316,5.316,0,0,1,5.407.051l-4.674,2.517a7.942,7.942,0,0,0-2.986-1.344ZM30.821,316.258l-3.487-28.6h9.273l8.719,28.6Zm48.915-12.1A16.033,16.033,0,0,1,69.9,305.53l-13.982-2.575a6.233,6.233,0,0,0-4.544.616l-.048.029-6.431,4.066-4.582-15.026a10.151,10.151,0,0,0,3.818-2.135l2.289-2.038a14.413,14.413,0,0,1,14.968-1.44l.961.465a12.2,12.2,0,0,0,5.281,1.21h9.325a5.9,5.9,0,0,1,5.784,4.789l-6.758-.306a40.472,40.472,0,0,0-7.355.34,1.045,1.045,0,1,0,.287,2.071,38.323,38.323,0,0,1,6.974-.322l7.954.36h.047a1.045,1.045,0,0,0,1.045-1.045c0-.169-.007-.337-.017-.5L86,293.51,97.525,287.3a4.567,4.567,0,0,1,5.5.881Z" transform="translate(0 -212.871)" fill="#007dc4" stroke="#007dc4" stroke-linecap="round" stroke-linejoin="round" stroke-width="1"/>
        <path id="Path_60" data-name="Path 60" d="M76.974,434.589a3.291,3.291,0,1,0,3.291-3.291A3.291,3.291,0,0,0,76.974,434.589Zm3.291-1.2a1.2,1.2,0,1,1-1.2,1.2,1.2,1.2,0,0,1,1.2-1.2Z" transform="translate(-42.831 -335.526)" fill="#007dc4" stroke="#007dc4" stroke-linecap="round" stroke-linejoin="round" stroke-width="1"/>
        <path id="Path_61" data-name="Path 61" d="M226.4,36.368V32.923a7.934,7.934,0,1,0-15.868,0v3.444a7.934,7.934,0,1,0,15.868,0Zm-13.778,0V32.923a5.844,5.844,0,1,1,11.687,0v3.444a5.844,5.844,0,1,1-11.687,0Z" transform="translate(-153.124)" fill="#007dc4" stroke="#007dc4" stroke-linecap="round" stroke-linejoin="round" stroke-width="1"/>
        <path id="Path_62" data-name="Path 62" d="M89.628,159.713h25.578a1.045,1.045,0,0,0,1.045-1.045v-2.4h17.51a1.045,1.045,0,0,0,1.045-1.045v-6.784a7.835,7.835,0,0,0-7.336-7.814,1.22,1.22,0,0,0-1.076.6,4.8,4.8,0,0,1-7.568-.185,1.045,1.045,0,0,0-.867-.424,7.749,7.749,0,0,0-3.845,1.122,8.787,8.787,0,0,0-6.132-3.042,1.271,1.271,0,0,0-1.078.627,5.628,5.628,0,0,1-8.881-.217,1.042,1.042,0,0,0-.867-.424,8.748,8.748,0,0,0-6.07,2.648c-.132.135-.257.275-.379.417a7.772,7.772,0,0,0-3.564-1.119,1.222,1.222,0,0,0-1.076.6,4.8,4.8,0,0,1-7.568-.185,1.048,1.048,0,0,0-.867-.424A7.832,7.832,0,0,0,70,148.439v6.784a1.045,1.045,0,0,0,1.045,1.045H88.583v2.4A1.045,1.045,0,0,0,89.628,159.713Zm27.885-16.978a6.888,6.888,0,0,0,10.313.027,5.747,5.747,0,0,1,4.889,5.677v5.739H116.251v-6.705a8.745,8.745,0,0,0-.966-4A5.65,5.65,0,0,1,117.513,142.735ZM96.706,140.8a7.72,7.72,0,0,0,11.66.028,6.714,6.714,0,0,1,5.794,6.645v10.15H90.673v-10.15A6.753,6.753,0,0,1,96.706,140.8ZM72.091,154.178v-5.739a5.78,5.78,0,0,1,5.1-5.7,6.888,6.888,0,0,0,10.312.026,5.7,5.7,0,0,1,2.04.72,8.757,8.757,0,0,0-.956,3.991v6.705Z" transform="translate(-37.072 -93.883)" fill="#007dc4" stroke="#007dc4" stroke-linecap="round" stroke-linejoin="round" stroke-width="1"/>
        <path id="Path_63" data-name="Path 63" d="M345.28,60.35V57.335a7.075,7.075,0,1,0-14.15,0V60.35a7.075,7.075,0,1,0,14.15,0Zm-12.059,0V57.335a4.984,4.984,0,1,1,9.969,0V60.35a4.984,4.984,0,1,1-9.969,0Z" transform="translate(-252.71 -20.869)" fill="#007dc4" stroke="#007dc4" stroke-linecap="round" stroke-linejoin="round" stroke-width="1"/>
        <path id="Path_64" data-name="Path 64" d="M113.8,60.35V57.335a7.075,7.075,0,1,0-14.15,0V60.35a7.075,7.075,0,1,0,14.15,0Zm-12.059,0V57.335a4.984,4.984,0,1,1,9.969,0V60.35a4.984,4.984,0,0,1-9.969,0Z" transform="translate(-61.553 -20.869)" fill="#007dc4" stroke="#007dc4" stroke-linecap="round" stroke-linejoin="round" stroke-width="1"/>
      </g>
      <rect id="Rectangle_61" data-name="Rectangle 61" width="10" height="4" transform="translate(987 2086)" fill="#fff"/>
      <rect id="Rectangle_63" data-name="Rectangle 63" width="10" height="4" transform="translate(922 2086)" fill="#fff"/>
      <rect id="Rectangle_62" data-name="Rectangle 62" width="10" height="4" transform="matrix(0.966, -0.259, 0.259, 0.966, 930.653, 2119.362)" fill="#fff"/>
    </g>
    <g id="Group_313" data-name="Group 313" transform="translate(-7990.957 -13410.96)" opacity="0.1">
      <g id="value-2" data-name="value" transform="translate(919.163 2057.554)">
        <path id="Path_59-2" data-name="Path 59" d="M107.109,285.854l-.474.256a6.537,6.537,0,0,0-7.766-1.945l-.027.014-1.12.6a8.506,8.506,0,0,0-9.74-.88l-6.031,3.28H73.924a11.594,11.594,0,0,1-5.018-1.15l-1.1-.534a18.939,18.939,0,0,0-19.711,1.925c-.026.02-.052.04-.076.063l-2.665,2.373a9.245,9.245,0,0,1-3.489,1.945l-1.514-4.969a1.2,1.2,0,0,0-1.148-.85H26.308a1.2,1.2,0,0,0-1.191,1.345l4.3,35.233a1.2,1.2,0,0,0,1.191,1.055H49.94a1.2,1.2,0,0,0,1.148-1.55l-2.54-8.335,7.911-5a4.761,4.761,0,0,1,3.473-.449c.025.006.05.012.075.016L76.1,311.262a20.824,20.824,0,0,0,12.868-1.817,1.2,1.2,0,0,0,.147-.086l27.834-19.111a1.2,1.2,0,0,0,.349-1.608A7.64,7.64,0,0,0,107.109,285.854Zm-7.144.446a4.1,4.1,0,0,1,4.481.991l-10.555,5.694-.62.327a9.15,9.15,0,0,0-1.446-2.626ZM89.142,286l.028-.016a6.1,6.1,0,0,1,6.208.058l-5.366,2.889a9.118,9.118,0,0,0-3.428-1.543ZM31.667,321.217l-4-32.833H38.31l10.01,32.833Zm56.159-13.887a18.407,18.407,0,0,1-11.3,1.57l-16.053-2.956a7.156,7.156,0,0,0-5.217.707l-.055.033-7.383,4.668L42.56,294.1a11.655,11.655,0,0,0,4.384-2.451l2.628-2.34a16.548,16.548,0,0,1,17.184-1.653l1.1.534a14.007,14.007,0,0,0,6.063,1.389H84.628a6.77,6.77,0,0,1,6.64,5.5l-7.759-.351a46.465,46.465,0,0,0-8.444.39,1.2,1.2,0,1,0,.329,2.377,44,44,0,0,1,8.006-.37l9.132.413h.054a1.2,1.2,0,0,0,1.2-1.2c0-.194-.008-.387-.02-.578l1.252-.66,13.23-7.135a5.243,5.243,0,0,1,6.309,1.011Z" transform="translate(-25.108 -231.21)" fill="#007dc4" stroke="#007dc4" stroke-linecap="round" stroke-linejoin="round" stroke-width="1"/>
        <path id="Path_60-2" data-name="Path 60" d="M76.974,435.076a3.778,3.778,0,1,0,3.778-3.778A3.778,3.778,0,0,0,76.974,435.076Zm3.778-1.378a1.378,1.378,0,1,1-1.378,1.378,1.378,1.378,0,0,1,1.378-1.378Z" transform="translate(-66.6 -350.033)" fill="#007dc4" stroke="#007dc4" stroke-linecap="round" stroke-linejoin="round" stroke-width="1"/>
        <path id="Path_61-2" data-name="Path 61" d="M228.753,38.053V34.1a9.109,9.109,0,1,0-18.218,0v3.955a9.109,9.109,0,1,0,18.218,0Zm-15.818,0V34.1a6.709,6.709,0,1,1,13.418,0v3.955a6.709,6.709,0,1,1-13.418,0Z" transform="translate(-173.448 -24.989)" fill="#007dc4" stroke="#007dc4" stroke-linecap="round" stroke-linejoin="round" stroke-width="1"/>
        <path id="Path_62-2" data-name="Path 62" d="M92.534,162.828H121.9a1.2,1.2,0,0,0,1.2-1.2v-2.755h20.1a1.2,1.2,0,0,0,1.2-1.2v-7.789a8.995,8.995,0,0,0-8.422-8.972,1.4,1.4,0,0,0-1.236.684,5.507,5.507,0,0,1-8.689-.212,1.2,1.2,0,0,0-1-.487,8.9,8.9,0,0,0-4.414,1.288,10.088,10.088,0,0,0-7.04-3.492,1.459,1.459,0,0,0-1.237.72,6.462,6.462,0,0,1-10.2-.249,1.2,1.2,0,0,0-1-.486,10.043,10.043,0,0,0-6.969,3.04c-.152.155-.3.316-.436.479a8.923,8.923,0,0,0-4.092-1.284,1.4,1.4,0,0,0-1.236.684,5.507,5.507,0,0,1-8.688-.212,1.2,1.2,0,0,0-1-.487A8.991,8.991,0,0,0,70,149.884v7.789a1.2,1.2,0,0,0,1.2,1.2H91.334v2.755A1.2,1.2,0,0,0,92.534,162.828Zm32.014-19.492a7.908,7.908,0,0,0,11.84.031A6.6,6.6,0,0,1,142,149.884v6.589H123.1v-7.7a10.04,10.04,0,0,0-1.109-4.595A6.486,6.486,0,0,1,124.549,143.336Zm-23.888-2.221a8.863,8.863,0,0,0,13.387.032,7.708,7.708,0,0,1,6.652,7.628v11.653H93.734V148.775A7.753,7.753,0,0,1,100.661,141.115ZM72.4,156.473v-6.589a6.636,6.636,0,0,1,5.851-6.548,7.908,7.908,0,0,0,11.839.03,6.547,6.547,0,0,1,2.342.826,10.054,10.054,0,0,0-1.1,4.582v7.7Z" transform="translate(-61.021 -115.939)" fill="#007dc4" stroke="#007dc4" stroke-linecap="round" stroke-linejoin="round" stroke-width="1"/>
        <path id="Path_63-2" data-name="Path 63" d="M347.375,61.844V58.383a8.123,8.123,0,0,0-16.245,0v3.462a8.123,8.123,0,0,0,16.245,0Zm-13.845,0V58.383a5.723,5.723,0,1,1,11.445,0v3.462a5.723,5.723,0,1,1-11.445,0Z" transform="translate(-269.923 -45.206)" fill="#007dc4" stroke="#007dc4" stroke-linecap="round" stroke-linejoin="round" stroke-width="1"/>
        <path id="Path_64-2" data-name="Path 64" d="M115.891,61.844V58.383a8.123,8.123,0,0,0-16.245,0v3.462a8.123,8.123,0,0,0,16.245,0Zm-13.845,0V58.383a5.723,5.723,0,0,1,11.445,0v3.462a5.723,5.723,0,0,1-11.445,0Z" transform="translate(-84.738 -45.206)" fill="#007dc4" stroke="#007dc4" stroke-linecap="round" stroke-linejoin="round" stroke-width="1"/>
      </g>
      <rect id="Rectangle_61-2" data-name="Rectangle 61" width="11.481" height="4.592" transform="translate(997.046 2090.212)" fill="#fff"/>
      <rect id="Rectangle_63-2" data-name="Rectangle 63" width="11.481" height="4.592" transform="translate(922.42 2090.212)" fill="#fff"/>
      <rect id="Rectangle_62-2" data-name="Rectangle 62" width="11.481" height="4.592" transform="matrix(0.966, -0.259, 0.259, 0.966, 932.354, 2128.515)" fill="#fff"/>
    </g>
    <g id="Group_314" data-name="Group 314" transform="translate(-7996.836 -13416.842)" opacity="0.03">
      <g id="value-3" data-name="value" transform="translate(919.163 2057.554)">
        <path id="Path_59-3" data-name="Path 59" d="M117.548,286.247l-.535.289a7.369,7.369,0,0,0-8.755-2.193l-.03.016-1.263.68a9.589,9.589,0,0,0-10.98-.992l-6.8,3.7H80.139a13.07,13.07,0,0,1-5.657-1.3l-1.245-.6a21.35,21.35,0,0,0-22.22,2.17c-.03.023-.058.045-.086.071l-3,2.675a10.422,10.422,0,0,1-3.933,2.192l-1.707-5.6a1.353,1.353,0,0,0-1.294-.958H26.461a1.353,1.353,0,0,0-1.343,1.516l4.844,39.719a1.353,1.353,0,0,0,1.343,1.189H53.1a1.353,1.353,0,0,0,1.294-1.747l-2.863-9.4,8.918-5.637a5.366,5.366,0,0,1,3.915-.507c.028.007.056.013.085.018l18.141,3.341A23.476,23.476,0,0,0,97.1,312.842a1.346,1.346,0,0,0,.165-.1L128.64,291.2a1.353,1.353,0,0,0,.393-1.813A8.613,8.613,0,0,0,117.548,286.247Zm-8.053.5a4.62,4.62,0,0,1,5.052,1.117l-11.9,6.419-.7.368a10.314,10.314,0,0,0-1.63-2.961Zm-12.2-.335.032-.018a6.88,6.88,0,0,1,7,.066l-6.05,3.257a10.279,10.279,0,0,0-3.864-1.739ZM32.5,326.112,27.989,289.1h12l11.285,37.013ZM95.81,310.458a20.751,20.751,0,0,1-12.734,1.769l-18.1-3.332a8.067,8.067,0,0,0-5.881.8l-.062.037-8.323,5.262-5.93-19.447a13.138,13.138,0,0,0,4.942-2.764l2.962-2.638a18.654,18.654,0,0,1,19.372-1.863l1.244.6a15.79,15.79,0,0,0,6.835,1.566H92.206a7.632,7.632,0,0,1,7.486,6.2l-8.747-.4a52.379,52.379,0,0,0-9.519.44,1.353,1.353,0,1,0,.371,2.68,49.6,49.6,0,0,1,9.026-.417l10.294.466h.061a1.353,1.353,0,0,0,1.353-1.353c0-.219-.009-.436-.023-.652l1.412-.744,14.915-8.044a5.91,5.91,0,0,1,7.112,1.14Z" transform="translate(-25.108 -224.647)" fill="#007dc4" stroke="#007dc4" stroke-linecap="round" stroke-linejoin="round" stroke-width="1"/>
        <path id="Path_60-3" data-name="Path 60" d="M76.974,435.557a4.259,4.259,0,1,0,4.259-4.259A4.259,4.259,0,0,0,76.974,435.557ZM81.233,434a1.553,1.553,0,1,1-1.553,1.553A1.553,1.553,0,0,1,81.233,434Z" transform="translate(-65.28 -339.688)" fill="#007dc4" stroke="#007dc4" stroke-linecap="round" stroke-linejoin="round" stroke-width="1"/>
        <path id="Path_61-3" data-name="Path 61" d="M231.072,39.716V35.258a10.269,10.269,0,1,0-20.537,0v4.458a10.269,10.269,0,1,0,20.537,0Zm-17.832,0V35.258a7.563,7.563,0,1,1,15.126,0v4.458a7.563,7.563,0,1,1-15.126,0Z" transform="translate(-168.726 -24.989)" fill="#007dc4" stroke="#007dc4" stroke-linecap="round" stroke-linejoin="round" stroke-width="1"/>
        <path id="Path_62-3" data-name="Path 62" d="M95.4,165.9h33.1a1.353,1.353,0,0,0,1.353-1.353v-3.105h22.662a1.353,1.353,0,0,0,1.353-1.353v-8.781A10.14,10.14,0,0,0,144.38,141.2a1.579,1.579,0,0,0-1.393.771,6.208,6.208,0,0,1-9.795-.239,1.353,1.353,0,0,0-1.122-.549,10.029,10.029,0,0,0-4.976,1.452,11.372,11.372,0,0,0-7.937-3.936,1.645,1.645,0,0,0-1.4.812,7.284,7.284,0,0,1-11.494-.281,1.349,1.349,0,0,0-1.122-.548,11.322,11.322,0,0,0-7.856,3.427c-.171.175-.333.356-.491.54a10.059,10.059,0,0,0-4.612-1.448,1.582,1.582,0,0,0-1.393.771A6.208,6.208,0,0,1,81,141.729a1.356,1.356,0,0,0-1.122-.549A10.136,10.136,0,0,0,70,151.311v8.781a1.353,1.353,0,0,0,1.353,1.353h22.7v3.105A1.353,1.353,0,0,0,95.4,165.9Zm36.09-21.974a8.915,8.915,0,0,0,13.348.035,7.438,7.438,0,0,1,6.328,7.347v7.428H129.86V150.06a11.318,11.318,0,0,0-1.25-5.18A7.312,7.312,0,0,1,131.493,143.929Zm-26.929-2.5a9.992,9.992,0,0,0,15.092.036,8.69,8.69,0,0,1,7.5,8.6V163.2h-30.4V150.06A8.74,8.74,0,0,1,104.564,141.425ZM72.706,158.739v-7.428a7.481,7.481,0,0,1,6.6-7.381,8.915,8.915,0,0,0,13.346.034,7.38,7.38,0,0,1,2.64.932,11.334,11.334,0,0,0-1.237,5.165v8.679Z" transform="translate(-59.878 -113.045)" fill="#007dc4" stroke="#007dc4" stroke-linecap="round" stroke-linejoin="round" stroke-width="1"/>
        <path id="Path_63-3" data-name="Path 63" d="M349.443,63.319v-3.9a9.157,9.157,0,0,0-18.314,0v3.9a9.157,9.157,0,0,0,18.314,0Zm-15.608,0v-3.9a6.451,6.451,0,1,1,12.9,0v3.9a6.451,6.451,0,0,1-12.9,0Z" transform="translate(-262.131 -44.562)" fill="#007dc4" stroke="#007dc4" stroke-linecap="round" stroke-linejoin="round" stroke-width="1"/>
        <path id="Path_64-3" data-name="Path 64" d="M117.959,63.319v-3.9a9.157,9.157,0,0,0-18.313,0v3.9a9.157,9.157,0,0,0,18.313,0Zm-15.608,0v-3.9a6.451,6.451,0,1,1,12.9,0v3.9a6.451,6.451,0,0,1-12.9,0Z" transform="translate(-82.84 -44.562)" fill="#007dc4" stroke="#007dc4" stroke-linecap="round" stroke-linejoin="round" stroke-width="1"/>
      </g>
      <rect id="Rectangle_61-3" data-name="Rectangle 61" width="12.942" height="5.177" transform="translate(1006.961 2094.37)" fill="#fff"/>
      <rect id="Rectangle_63-3" data-name="Rectangle 63" width="12.942" height="5.177" transform="translate(922.835 2094.37)" fill="#fff"/>
      <rect id="Rectangle_62-3" data-name="Rectangle 62" width="12.942" height="5.177" transform="matrix(0.966, -0.259, 0.259, 0.966, 934.033, 2137.549)" fill="#fff"/>
    </g>
  </g>
</svg>
