<svg xmlns="http://www.w3.org/2000/svg" width="160.432" height="101.484" viewBox="0 0 160.432 101.484">
  <g id="Group_311" data-name="Group 311" transform="translate(7325.217 11358.806)">
    <g id="Group_310" data-name="Group 310" transform="translate(-8205 -13409)">
      <g id="shipped" transform="translate(902.041 1970.212)">
        <g id="Group_49" data-name="Group 49" transform="translate(0 94.062)">
          <g id="Group_48" data-name="Group 48" transform="translate(0 0)">
            <path id="Path_53" data-name="Path 53" d="M107.8,125.147l-3-12.007a1.815,1.815,0,0,0,1.437-1.775v-1.936a7.632,7.632,0,0,0-7.623-7.623H84.942V97.813a3.755,3.755,0,0,0-3.751-3.751h-69.7a3.755,3.755,0,0,0-3.751,3.751v32.912a1.815,1.815,0,0,0,3.63,0V97.813a.121.121,0,0,1,.121-.121h69.7a.121.121,0,0,1,.121.121v32.912a1.815,1.815,0,0,0,3.63,0v-2.058h21.42a5.939,5.939,0,0,1,5.64,4.114h-5.644a1.815,1.815,0,0,0-1.815,1.815v3.872a5.693,5.693,0,0,0,5.687,5.687h2.057v7.986h-4.746a11.491,11.491,0,0,0-21.726,0h-.874V138.469a1.815,1.815,0,1,0-3.63,0v13.673H43.654a11.491,11.491,0,0,0-21.726,0H11.495a.121.121,0,0,1-.121-.121v-3.993h7.865a1.815,1.815,0,0,0,0-3.63H1.815a1.815,1.815,0,0,0,0,3.63H7.744v3.993a3.755,3.755,0,0,0,3.751,3.751h9.8c0,.04,0,.08,0,.121a11.495,11.495,0,0,0,22.99,0c0-.041,0-.081,0-.121h40.9c0,.04,0,.08,0,.121a11.495,11.495,0,0,0,22.99,0c0-.041,0-.081,0-.121H114.1a1.815,1.815,0,0,0,1.815-1.815V134.6A9.573,9.573,0,0,0,107.8,125.147ZM84.942,105.436H98.614a4,4,0,0,1,3.993,3.993v.121H84.942Zm0,19.6V113.18h16.128l2.964,11.858H84.942Zm-52.151,38.72a7.865,7.865,0,1,1,7.865-7.865A7.874,7.874,0,0,1,32.791,163.758Zm63.888,0a7.865,7.865,0,1,1,7.865-7.865A7.874,7.874,0,0,1,96.678,163.758Zm15.609-23.232H110.23a2.059,2.059,0,0,1-2.057-2.057v-2.057h4.114v4.114Z" transform="translate(0 -94.062)" fill="#007dc4"/>
          </g>
        </g>
        <g id="Group_51" data-name="Group 51" transform="translate(29.04 152.142)">
          <g id="Group_50" data-name="Group 50">
            <path id="Path_54" data-name="Path 54" d="M132.018,350.6a3.751,3.751,0,1,0,3.751,3.751A3.755,3.755,0,0,0,132.018,350.6Z" transform="translate(-128.267 -350.597)" fill="#007dc4"/>
          </g>
        </g>
        <g id="Group_53" data-name="Group 53" transform="translate(92.927 152.142)">
          <g id="Group_52" data-name="Group 52">
            <path id="Path_55" data-name="Path 55" d="M414.206,350.6a3.751,3.751,0,1,0,3.751,3.751A3.755,3.755,0,0,0,414.206,350.6Z" transform="translate(-410.455 -350.597)" fill="#007dc4"/>
          </g>
        </g>
        <g id="Group_55" data-name="Group 55" transform="translate(46.464 144.398)">
          <g id="Group_54" data-name="Group 54" transform="translate(0 0)">
            <path id="Path_56" data-name="Path 56" d="M234.146,316.393h-27.1a1.815,1.815,0,0,0,0,3.63h27.1a1.815,1.815,0,0,0,0-3.63Z" transform="translate(-205.227 -316.393)" fill="#007dc4"/>
          </g>
        </g>
        <g id="Group_57" data-name="Group 57" transform="translate(3.872 136.654)">
          <g id="Group_56" data-name="Group 56" transform="translate(0 0)">
            <path id="Path_57" data-name="Path 57" d="M42.149,282.188H18.917a1.815,1.815,0,0,0,0,3.63H42.149a1.815,1.815,0,0,0,0-3.63Z" transform="translate(-17.102 -282.188)" fill="#007dc4"/>
          </g>
        </g>
        <g id="Group_59" data-name="Group 59" transform="translate(32.912 111.486)">
          <g id="Group_58" data-name="Group 58" transform="translate(0 0)">
            <path id="Path_58" data-name="Path 58" d="M175.572,171.554a1.815,1.815,0,0,0-2.567,0l-16.141,16.14-8.4-8.4a1.815,1.815,0,1,0-2.567,2.567l9.68,9.68a1.815,1.815,0,0,0,2.566,0l17.424-17.424A1.815,1.815,0,0,0,175.572,171.554Z" transform="translate(-145.37 -171.023)" fill="#007dc4"/>
          </g>
        </g>
      </g>
      <g id="shipped-2" data-name="shipped" transform="translate(891.02 1963.24)" opacity="0.1">
        <g id="Group_49-2" data-name="Group 49" transform="translate(0 94.062)">
          <g id="Group_48-2" data-name="Group 48" transform="translate(0 0)">
            <path id="Path_53-2" data-name="Path 53" d="M128.3,131.058l-3.573-14.29a2.16,2.16,0,0,0,1.71-2.112v-2.3a9.083,9.083,0,0,0-9.072-9.072H101.094V98.526a4.469,4.469,0,0,0-4.464-4.464H13.681a4.469,4.469,0,0,0-4.464,4.464V137.7a2.16,2.16,0,0,0,4.32,0V98.526a.144.144,0,0,1,.144-.144H96.629a.144.144,0,0,1,.144.144V137.7a2.16,2.16,0,0,0,4.32,0v-2.449h25.493a7.069,7.069,0,0,1,6.713,4.9h-6.717a2.16,2.16,0,0,0-2.16,2.16v4.608a6.776,6.776,0,0,0,6.768,6.768h2.448v9.5h-5.648a13.676,13.676,0,0,0-25.858,0h-1.04V146.913a2.16,2.16,0,0,0-4.32,0v16.272H51.955a13.676,13.676,0,0,0-25.858,0H13.681a.144.144,0,0,1-.144-.144v-4.752H22.9a2.16,2.16,0,0,0,0-4.32H2.16a2.16,2.16,0,0,0,0,4.32H9.217v4.752a4.469,4.469,0,0,0,4.464,4.464H25.349c0,.048,0,.1,0,.144a13.681,13.681,0,0,0,27.361,0c0-.049,0-.1,0-.144h48.682c0,.048,0,.1,0,.144a13.681,13.681,0,0,0,27.361,0c0-.049,0-.1,0-.144h7.06a2.16,2.16,0,0,0,2.16-2.16V142.3A11.394,11.394,0,0,0,128.3,131.058ZM101.094,107.6h16.273a4.758,4.758,0,0,1,4.752,4.752v.144H101.094Zm0,23.329V116.815h19.194l3.528,14.113ZM39.026,177.011a9.36,9.36,0,1,1,9.36-9.36A9.371,9.371,0,0,1,39.026,177.011Zm76.036,0a9.36,9.36,0,1,1,9.361-9.36A9.371,9.371,0,0,1,115.062,177.011Zm18.577-27.65h-2.448a2.451,2.451,0,0,1-2.448-2.448v-2.448h4.9v4.9Z" transform="translate(0 -94.062)" fill="#007dc4"/>
          </g>
        </g>
        <g id="Group_51-2" data-name="Group 51" transform="translate(34.562 163.186)">
          <g id="Group_50-2" data-name="Group 50">
            <path id="Path_54-2" data-name="Path 54" d="M132.731,350.6a4.464,4.464,0,1,0,4.464,4.464A4.469,4.469,0,0,0,132.731,350.6Z" transform="translate(-128.267 -350.597)" fill="#007dc4"/>
          </g>
        </g>
        <g id="Group_53-2" data-name="Group 53" transform="translate(110.598 163.186)">
          <g id="Group_52-2" data-name="Group 52">
            <path id="Path_55-2" data-name="Path 55" d="M414.919,350.6a4.464,4.464,0,1,0,4.464,4.464A4.469,4.469,0,0,0,414.919,350.6Z" transform="translate(-410.455 -350.597)" fill="#007dc4"/>
          </g>
        </g>
        <g id="Group_55-2" data-name="Group 55" transform="translate(55.299 153.97)">
          <g id="Group_54-2" data-name="Group 54" transform="translate(0 0)">
            <path id="Path_56-2" data-name="Path 56" d="M239.645,316.393H207.387a2.16,2.16,0,0,0,0,4.32h32.258a2.16,2.16,0,0,0,0-4.32Z" transform="translate(-205.227 -316.393)" fill="#007dc4"/>
          </g>
        </g>
        <g id="Group_57-2" data-name="Group 57" transform="translate(4.608 144.753)">
          <g id="Group_56-2" data-name="Group 56" transform="translate(0 0)">
            <path id="Path_57-2" data-name="Path 57" d="M46.912,282.188H19.262a2.16,2.16,0,0,0,0,4.32h27.65a2.16,2.16,0,0,0,0-4.32Z" transform="translate(-17.102 -282.188)" fill="#007dc4"/>
          </g>
        </g>
        <g id="Group_59-2" data-name="Group 59" transform="translate(39.17 114.799)">
          <g id="Group_58-2" data-name="Group 58" transform="translate(0 0)">
            <path id="Path_58-2" data-name="Path 58" d="M181.315,171.655a2.16,2.16,0,0,0-3.055,0l-19.21,19.209-9.993-9.993A2.16,2.16,0,1,0,146,183.926l11.521,11.521a2.16,2.16,0,0,0,3.055,0l20.737-20.737A2.16,2.16,0,0,0,181.315,171.655Z" transform="translate(-145.37 -171.023)" fill="#007dc4"/>
          </g>
        </g>
      </g>
      <g id="shipped-3" data-name="shipped" transform="translate(879.783 1956.132)" opacity="0.03">
        <g id="Group_49-3" data-name="Group 49" transform="translate(0 94.062)">
          <g id="Group_48-3" data-name="Group 48" transform="translate(0 0)">
            <path id="Path_53-3" data-name="Path 53" d="M149.2,137.085l-4.155-16.618a2.512,2.512,0,0,0,1.988-2.456v-2.679a10.562,10.562,0,0,0-10.55-10.55H117.561V99.254a5.2,5.2,0,0,0-5.192-5.192H15.909a5.2,5.2,0,0,0-5.191,5.192V144.8a2.512,2.512,0,0,0,5.024,0V99.254a.167.167,0,0,1,.167-.167h96.46a.167.167,0,0,1,.167.167v45.552a2.512,2.512,0,0,0,5.024,0v-2.848h29.646a8.22,8.22,0,0,1,7.806,5.694H147.2a2.512,2.512,0,0,0-2.512,2.512v5.359a7.88,7.88,0,0,0,7.871,7.871h2.847v11.053H148.84a15.9,15.9,0,0,0-30.07,0H117.56V155.522a2.512,2.512,0,1,0-5.024,0v18.923H60.418a15.9,15.9,0,0,0-30.07,0H15.909a.167.167,0,0,1-.167-.167v-5.526H26.627a2.512,2.512,0,0,0,0-5.024H2.512a2.512,2.512,0,0,0,0,5.024h8.206v5.526a5.2,5.2,0,0,0,5.191,5.192H29.479c0,.056,0,.111,0,.167a15.909,15.909,0,0,0,31.818,0c0-.056,0-.112,0-.167H117.9c0,.056,0,.111,0,.167a15.909,15.909,0,1,0,31.818,0c0-.056,0-.112,0-.167h8.211a2.512,2.512,0,0,0,2.512-2.512V150.163A13.25,13.25,0,0,0,149.2,137.085Zm-31.64-27.28h18.924a5.533,5.533,0,0,1,5.526,5.526v.167h-24.45Zm0,27.129V120.522h22.321l4.1,16.412ZM45.383,190.523a10.885,10.885,0,1,1,10.885-10.885A10.9,10.9,0,0,1,45.383,190.523Zm88.422,0a10.885,10.885,0,1,1,10.885-10.885A10.9,10.9,0,0,1,133.806,190.523Zm21.6-32.154h-2.847a2.85,2.85,0,0,1-2.847-2.847v-2.847h5.694v5.694Z" transform="translate(0 -94.062)" fill="#007dc4"/>
          </g>
        </g>
        <g id="Group_51-3" data-name="Group 51" transform="translate(40.192 174.446)">
          <g id="Group_50-3" data-name="Group 50">
            <path id="Path_54-3" data-name="Path 54" d="M133.458,350.6a5.191,5.191,0,1,0,5.192,5.192A5.2,5.2,0,0,0,133.458,350.6Z" transform="translate(-128.267 -350.597)" fill="#007dc4"/>
          </g>
        </g>
        <g id="Group_53-3" data-name="Group 53" transform="translate(128.614 174.446)">
          <g id="Group_52-3" data-name="Group 52">
            <path id="Path_55-3" data-name="Path 55" d="M415.646,350.6a5.191,5.191,0,1,0,5.192,5.192A5.2,5.2,0,0,0,415.646,350.6Z" transform="translate(-410.455 -350.597)" fill="#007dc4"/>
          </g>
        </g>
        <g id="Group_55-3" data-name="Group 55" transform="translate(64.307 163.728)">
          <g id="Group_54-3" data-name="Group 54" transform="translate(0 0)">
            <path id="Path_56-3" data-name="Path 56" d="M245.252,316.393H207.739a2.512,2.512,0,0,0,0,5.024h37.512a2.512,2.512,0,0,0,0-5.024Z" transform="translate(-205.227 -316.393)" fill="#007dc4"/>
          </g>
        </g>
        <g id="Group_57-3" data-name="Group 57" transform="translate(5.359 153.01)">
          <g id="Group_56-3" data-name="Group 56" transform="translate(0 0)">
            <path id="Path_57-3" data-name="Path 57" d="M51.768,282.188H19.614a2.512,2.512,0,0,0,0,5.024H51.768a2.512,2.512,0,0,0,0-5.024Z" transform="translate(-17.102 -282.188)" fill="#007dc4"/>
          </g>
        </g>
        <g id="Group_59-3" data-name="Group 59" transform="translate(45.551 118.177)">
          <g id="Group_58-3" data-name="Group 58" transform="translate(0 0)">
            <path id="Path_58-3" data-name="Path 58" d="M187.17,171.758a2.512,2.512,0,0,0-3.552,0L161.279,194.1l-11.621-11.621a2.512,2.512,0,0,0-3.552,3.552l13.4,13.4a2.511,2.511,0,0,0,3.552,0l24.115-24.115A2.512,2.512,0,0,0,187.17,171.758Z" transform="translate(-145.37 -171.023)" fill="#007dc4"/>
          </g>
        </g>
      </g>
    </g>
  </g>
</svg>
