<svg xmlns="http://www.w3.org/2000/svg" width="22.998" height="30.235" viewBox="0 0 22.998 30.235">
  <g id="man-user" transform="translate(0 0)">
    <path id="Path_1" data-name="Path 1" d="M110.622,14.787c3.362,0,6.087-3.31,6.087-7.394S115.815,0,110.622,0s-6.087,3.31-6.087,7.394S107.26,14.787,110.622,14.787Z" transform="translate(-99.124)" fill="#373737"/>
    <path id="Path_2" data-name="Path 2" d="M41.9,300.5c0-.249,0-.07,0,0Z" transform="translate(-41.895 -274.423)" fill="#373737"/>
    <path id="Path_3" data-name="Path 3" d="M308.085,301.712c0-.068,0-.473,0,0Z" transform="translate(-285.089 -275.441)" fill="#373737"/>
    <path id="Path_4" data-name="Path 4" d="M64.89,188.163c-.113-7.113-1.042-9.14-8.151-10.423a4.262,4.262,0,0,1-3.333,1.275,4.262,4.262,0,0,1-3.333-1.275c-7.032,1.269-8.017,3.266-8.147,10.192-.011.566-.016.6-.017.53,0,.123,0,.351,0,.747,0,0,1.693,3.412,11.5,3.412s11.5-3.412,11.5-3.412c0-.255,0-.432,0-.553A4.59,4.59,0,0,1,64.89,188.163Z" transform="translate(-41.907 -162.385)" fill="#373737"/>
  </g>
</svg>
