<svg xmlns="http://www.w3.org/2000/svg" width="18.282" height="41.546" viewBox="0 0 18.282 41.546">
  <g id="next" transform="translate(-938.363 -935.545)">
    <g id="next-2" data-name="next" transform="translate(955.347 968.758) rotate(90)">
      <path id="Path_6" data-name="Path 6" d="M8.2,7.573.763.131A.446.446,0,0,0,.131.763L7.256,7.887.131,15.011a.445.445,0,0,0,0,.631.449.449,0,0,0,.314.132.436.436,0,0,0,.314-.132L8.2,8.2A.444.444,0,0,0,8.2,7.573Z" transform="translate(0 0)" fill="#007dc4"/>
    </g>
    <g id="mouse" transform="translate(938.363 935.545)">
      <g id="Group_45" data-name="Group 45" transform="translate(0)">
        <g id="Group_44" data-name="Group 44">
          <path id="Path_27" data-name="Path 27" d="M44.21,0a9.149,9.149,0,0,0-9.141,9.137v9.15a9.141,9.141,0,0,0,18.282,0V9.137A9.149,9.149,0,0,0,44.21,0Zm8.125,18.287a8.125,8.125,0,0,1-16.251,0V9.137a8.125,8.125,0,0,1,16.251,0Z" transform="translate(-35.069)" fill="#007dc4"/>
          <path id="Path_28" data-name="Path 28" d="M101.818,23.379a.508.508,0,0,0-.508.508v4.6a.508.508,0,0,0,1.016,0v-4.6A.508.508,0,0,0,101.818,23.379Z" transform="translate(-92.677 -20.332)" fill="#007dc4"/>
        </g>
      </g>
    </g>
  </g>
</svg>
