<svg xmlns="http://www.w3.org/2000/svg" width="16" height="15" viewBox="0 0 16 15">
  <g id="Group_179" data-name="Group 179" transform="translate(0 -0.5)">
    <path id="Path_155" data-name="Path 155" d="M4,12.5v3h8v-5H4Zm1-1h6v1H5Zm0,2h6v1H5Z" fill="#007dc4"/>
    <path id="Path_156" data-name="Path 156" d="M12,3.5V.5H4v5h8Z" fill="#007dc4"/>
    <path id="Path_157" data-name="Path 157" d="M14,3.5H13v3H3v-3H2a2.151,2.151,0,0,0-2,2v5a2.151,2.151,0,0,0,2,2H3v-3H13v3h1a2.151,2.151,0,0,0,2-2v-5A2.151,2.151,0,0,0,14,3.5Z" fill="#007dc4"/>
  </g>
</svg>
