<svg xmlns="http://www.w3.org/2000/svg" width="33.6" height="41.695" viewBox="0 0 33.6 41.695">
  <g id="screw" transform="translate(-0.172 10.819) rotate(-30)">
    <path id="Path_18" data-name="Path 18" d="M73.34,255.551l10-9.124v-2.353l-10,9.124Zm0,0" transform="translate(-67.424 -224.998)" fill="#373737"/>
    <path id="Path_19" data-name="Path 19" d="M73.34,310.41l10-9.124v-2.352l-10,9.124Zm0,0" transform="translate(-67.424 -275.571)" fill="#373737"/>
    <path id="Path_20" data-name="Path 20" d="M73.339,363.245a2.839,2.839,0,0,0,.48,1.581l9.524-8.69v-2.351l-10,9.124Zm0,0" transform="translate(-67.424 -326.135)" fill="#373737"/>
    <path id="Path_21" data-name="Path 21" d="M101.734,408.617l-8.445,7.706a2.818,2.818,0,0,0,1.3.327H95.5l6.23-5.68Zm0,0" transform="translate(-85.814 -376.681)" fill="#373737"/>
    <path id="Path_22" data-name="Path 22" d="M73.34,200.7l10-9.124v-2.352l-10,9.124Zm0,0" transform="translate(-67.424 -174.431)" fill="#373737"/>
    <path id="Path_23" data-name="Path 23" d="M152.886,464.349v-.888l-4.108,3.746h1.25A2.861,2.861,0,0,0,152.886,464.349Zm0,0" transform="translate(-136.966 -427.238)" fill="#373737"/>
    <path id="Path_24" data-name="Path 24" d="M.2,6.384V7.813a.715.715,0,0,0,.714.715H20.922a.715.715,0,0,0,.715-.715V6.384A6.459,6.459,0,0,0,15.92,0V1.382a1.431,1.431,0,0,1-1.429,1.429H7.345A1.431,1.431,0,0,1,5.916,1.382V0A6.459,6.459,0,0,0,.2,6.384Zm0,0" fill="#373737"/>
    <path id="Path_25" data-name="Path 25" d="M83.344,127.395h-10v12.021l10-9.124Zm0,0" transform="translate(-67.424 -117.438)" fill="#373737"/>
  </g>
</svg>
