<svg xmlns="http://www.w3.org/2000/svg" width="39.34" height="39.339" viewBox="0 0 39.34 39.339">
  <g id="settings-work-tool" transform="translate(-0.002 0)">
    <g id="Group_29" data-name="Group 29" transform="translate(0 0)">
      <path id="Path_16" data-name="Path 16" d="M39.218,17.486a1.281,1.281,0,0,0-1.264-.969A4.343,4.343,0,0,1,34.98,8.958a1.092,1.092,0,0,0,.12-1.483,19.464,19.464,0,0,0-3.116-3.147,1.1,1.1,0,0,0-1.495.121,4.534,4.534,0,0,1-4.906,1.1,4.369,4.369,0,0,1-2.657-4.27A1.091,1.091,0,0,0,21.961.131,19.638,19.638,0,0,0,17.536.119a1.1,1.1,0,0,0-.974,1.125,4.376,4.376,0,0,1-2.693,4.2A4.546,4.546,0,0,1,9,4.333a1.1,1.1,0,0,0-1.484-.125A19.537,19.537,0,0,0,4.333,7.354a1.094,1.094,0,0,0,.117,1.5,4.359,4.359,0,0,1,1.1,4.908,4.547,4.547,0,0,1-4.28,2.659,1.069,1.069,0,0,0-1.136.966,19.7,19.7,0,0,0-.008,4.473,1.3,1.3,0,0,0,1.29.967,4.314,4.314,0,0,1,4.047,2.7,4.374,4.374,0,0,1-1.1,4.864,1.093,1.093,0,0,0-.12,1.482,19.534,19.534,0,0,0,3.112,3.148,1.094,1.094,0,0,0,1.5-.119,4.527,4.527,0,0,1,4.9-1.1,4.362,4.362,0,0,1,2.661,4.269,1.093,1.093,0,0,0,.965,1.149,19.576,19.576,0,0,0,4.425.012,1.1,1.1,0,0,0,.974-1.126A4.372,4.372,0,0,1,25.472,33.9a4.539,4.539,0,0,1,4.871,1.108,1.1,1.1,0,0,0,1.484.124,19.583,19.583,0,0,0,3.182-3.146,1.092,1.092,0,0,0-.118-1.495,4.359,4.359,0,0,1-1.1-4.907,4.4,4.4,0,0,1,4.024-2.666l.243.006a1.1,1.1,0,0,0,1.151-.964A19.687,19.687,0,0,0,39.218,17.486ZM19.7,26.272a6.561,6.561,0,1,1,6.561-6.561A6.568,6.568,0,0,1,19.7,26.272Z" transform="translate(-0.003 0)" fill="#fff" fill-rule="evenodd"/>
    </g>
  </g>
</svg>
