<svg xmlns="http://www.w3.org/2000/svg" width="30.534" height="30.533" viewBox="0 0 30.534 30.533">
  <g id="shopping-cart" transform="translate(0.001 0)">
    <g id="shopping-cart-2" data-name="shopping-cart">
      <path id="Path_5" data-name="Path 5" d="M9.16,24.427a3.053,3.053,0,1,0,3.053,3.053A3.062,3.062,0,0,0,9.16,24.427ZM0,0V3.053H3.053l5.5,11.6L6.412,18.32a5.424,5.424,0,0,0-.305,1.527A3.062,3.062,0,0,0,9.16,22.9H27.48V19.847H9.771a.328.328,0,0,1-.305-.305v-.153l1.374-2.6h11.3a2.784,2.784,0,0,0,2.6-1.527l5.5-9.923a.84.84,0,0,0,.305-.763,1.442,1.442,0,0,0-1.527-1.527H6.412L5.038,0ZM24.427,24.427A3.053,3.053,0,1,0,27.48,27.48,3.062,3.062,0,0,0,24.427,24.427Z" fill="#007dc4"/>
    </g>
  </g>
</svg>
