<svg xmlns="http://www.w3.org/2000/svg" width="36.094" height="39.339" viewBox="0 0 36.094 39.339">
  <g id="tools-cross-settings-symbol-for-interface" transform="translate(-15.138 0)">
    <path id="Path_17" data-name="Path 17" d="M50.187,33.129,37.776,20.451a3.5,3.5,0,0,0-.369-.324l2.2-2.364a4.5,4.5,0,0,0,.317-.362,8.071,8.071,0,0,0,8.688-1.9,8.448,8.448,0,0,0,2.365-6.633.718.718,0,0,0-.461-.616.7.7,0,0,0-.741.167L45.8,12.479l-4.027-1.037L40.626,7.2,44.6,3.136a.732.732,0,0,0,.165-.758.709.709,0,0,0-.6-.472A8.072,8.072,0,0,0,37.67,4.323a8.5,8.5,0,0,0-1.865,8.869c-.12.1-.239.213-.355.331L32.215,16.7l-5.941-6.068a2.2,2.2,0,0,0-.235-.206c.07-.125.138-.254.2-.387,1.255.247,3.549-2.249,5.5-4.238L26.06,0c-2.538,2.593-4.391,4.333-4.151,5.614a5.541,5.541,0,0,0-1.465,1.02l-.8.816A3.474,3.474,0,0,0,18.7,9.33c-.078.09-.156.186-.235.288l-.3.382c-.008.009-.034.047-.041.057l-.27.386c-.169.23-.317.48-.459.722q-.079.134-.161.269c-.009.015-.017.031-.025.046l-.12.231c-.145.278-.3.565-.424.882l-.021.05a9.719,9.719,0,0,0-.419,1.155l-.053.175c-.043.144-.088.287-.128.459l-.11.558a6.522,6.522,0,0,0-.134,1l-.016.2a5.074,5.074,0,0,0-.018.877c0,.088.007.174.01.291,0,.049,0,.1,0,.142a2.891,2.891,0,0,0,.028.391l.069.453c.015.088.027.173.039.254a3.9,3.9,0,0,0,.107.555l.29,1.029a.68.68,0,0,0,.7.5.67.67,0,0,0,.433-.2.694.694,0,0,0,.192-.39l.151-1.046a2.906,2.906,0,0,1,.082-.333c.026-.089.051-.18.07-.258l.107-.39a1.1,1.1,0,0,1,.061-.157c.021-.049.043-.1.061-.149.036-.083.07-.166.1-.251a2.919,2.919,0,0,1,.224-.478c.041-.071.08-.142.119-.214a3.568,3.568,0,0,1,.305-.495l.021-.028.253-.356c.052-.067.11-.13.166-.194.04-.045.08-.09.131-.149a5.088,5.088,0,0,1,.493-.5l.09-.083c.125-.119.27-.23.422-.349l.183-.141c.077-.051.151-.1.225-.152a3.938,3.938,0,0,1,.394-.25l.3-.174.3-.152c.106-.056.21-.1.305-.138l.165-.071c.053-.019.1-.039.153-.057a1.971,1.971,0,0,1,.2-.068l.082-.019a2.261,2.261,0,0,0,.319.415l5.877,6L16.456,32.158l-.014.015a3.853,3.853,0,0,0-.254,5.525c1.561,1.595,3.7,1.186,5.264-.408l.019-.02,11.068-11.9c.065.078.129.157.2.231L45.15,38.273a3.509,3.509,0,0,0,5.037,0A3.694,3.694,0,0,0,50.187,33.129ZM19.832,35.975a1.45,1.45,0,0,1-2.083,0,1.527,1.527,0,0,1,0-2.127,1.451,1.451,0,0,1,2.083,0A1.528,1.528,0,0,1,19.832,35.975Z" fill="#373737"/>
  </g>
</svg>
