<?xml version="1.0" standalone="no"?>
<!DOCTYPE svg PUBLIC "-//W3C//DTD SVG 20010904//EN"
 "http://www.w3.org/TR/2001/REC-SVG-20010904/DTD/svg10.dtd">
<svg version="1.0" xmlns="http://www.w3.org/2000/svg"
 width="15px" height="15px" viewBox="0 0 1254.000000 1280.000000"
 preserveAspectRatio="xMidYMid meet">
<metadata>
Created by potrace 1.15, written by Peter Selinger 2001-2017
</metadata>
<g transform="translate(0.000000,1280.000000) scale(0.100000,-0.100000)"
fill="#ff5722" stroke="none">
<path d="M5910 12790 c-338 -22 -743 -84 -1060 -161 -702 -170 -1370 -462
-1977 -866 -558 -370 -1068 -851 -1479 -1396 -976 -1293 -1407 -2947 -1183
-4543 10 -78 17 -148 14 -157 -4 -8 3 -86 15 -173 152 -1164 635 -2258 1392
-3155 132 -157 425 -458 587 -602 1466 -1311 3501 -1835 5411 -1392 826 191
1603 551 2280 1055 368 274 691 580 1034 980 12 14 74 93 137 175 521 675 893
1448 1093 2270 42 171 79 350 106 513 21 132 23 151 9 112 -8 -22 -8 -21 -4 7
2 18 15 96 29 175 65 374 81 590 80 1048 0 491 -24 744 -110 1180 -291 1475
-1120 2801 -2317 3701 -918 692 -1987 1104 -3147 1214 -196 19 -719 27 -910
15z m-5673 -7172 c-3 -7 -5 -2 -5 12 0 14 2 19 5 13 2 -7 2 -19 0 -25z m12040
-220 c-3 -8 -6 -5 -6 6 -1 11 2 17 5 13 3 -3 4 -12 1 -19z"/>
<path d="M211 5694 c0 -11 3 -14 6 -6 3 7 2 16 -1 19 -3 4 -6 -2 -5 -13z"/>
</g>
</svg>
