<svg width="26" height="26" viewBox="0 0 26 26" fill="none" xmlns="http://www.w3.org/2000/svg">
<path d="M17.2692 20.8013C17 20.8034 16.7339 20.8595 16.4861 20.9663C16.2384 21.0732 16.014 21.2287 15.826 21.4239C15.6379 21.619 15.4899 21.85 15.3904 22.1035C15.2909 22.357 15.242 22.6279 15.2464 22.9007C15.2561 23.3037 15.383 23.6949 15.611 24.0253C15.8391 24.3557 16.1583 24.6106 16.5287 24.7581C16.8991 24.9056 17.3041 24.9391 17.6932 24.8544C18.0823 24.7698 18.4381 24.5708 18.7161 24.2823C18.9941 23.9938 19.1819 23.6286 19.256 23.2325C19.3302 22.8364 19.2873 22.4269 19.1329 22.0553C18.9784 21.6838 18.7193 21.3666 18.3878 21.1435C18.0563 20.9205 17.6672 20.8015 17.2692 20.8013ZM17.2692 23.948C17.1359 23.9464 17.0041 23.9177 16.8819 23.8635C16.7597 23.8094 16.6494 23.731 16.5577 23.6328C16.4659 23.5347 16.3946 23.4189 16.3478 23.2923C16.3011 23.1657 16.2799 23.0309 16.2856 22.8959C16.296 22.7011 16.3626 22.5136 16.477 22.3567C16.5915 22.1997 16.7488 22.0802 16.9296 22.0129C17.1103 21.9456 17.3066 21.9335 17.4941 21.978C17.6816 22.0225 17.8522 22.1217 17.9846 22.2634C18.1171 22.4051 18.2056 22.5829 18.2393 22.775C18.2731 22.9671 18.2505 23.1651 18.1743 23.3443C18.0982 23.5235 17.9719 23.6762 17.8111 23.7835C17.6502 23.8908 17.4618 23.948 17.2692 23.948Z" fill="#D92A2A" stroke="#D92A2A" stroke-width="0.5"/>
<path d="M6.23268 20.8013C5.96345 20.8034 5.69729 20.8595 5.44957 20.9663C5.20185 21.0732 4.97747 21.2287 4.7894 21.4239C4.60132 21.619 4.45328 21.85 4.35381 22.1035C4.25434 22.357 4.20542 22.6279 4.20987 22.9007C4.20932 23.449 4.42072 23.9758 4.7988 24.3682C5.17688 24.7606 5.69158 24.9874 6.23268 25C6.50206 24.9985 6.76846 24.9428 7.01642 24.8361C7.26438 24.7294 7.48896 24.5739 7.67713 24.3786C7.86531 24.1833 8.01333 23.9521 8.11261 23.6984C8.21189 23.4447 8.26045 23.1735 8.25548 22.9007C8.25603 22.3523 8.04463 21.8255 7.66655 21.4331C7.28847 21.0408 6.77377 20.814 6.23268 20.8013ZM6.23268 23.948C6.09929 23.9464 5.96756 23.9177 5.84533 23.8635C5.7231 23.8094 5.61284 23.731 5.5211 23.6328C5.42936 23.5347 5.35801 23.4189 5.31128 23.2923C5.26455 23.1657 5.24339 23.0309 5.24905 22.8959C5.24695 22.6257 5.34822 22.3652 5.53162 22.1691C5.71502 21.9729 5.96628 21.8564 6.23268 21.8439C6.36607 21.8454 6.49778 21.8741 6.62002 21.9283C6.74225 21.9824 6.85251 22.0609 6.94425 22.159C7.03599 22.2571 7.10734 22.3729 7.15407 22.4995C7.2008 22.6261 7.22196 22.7609 7.21629 22.8959C7.21998 23.1665 7.11924 23.4279 6.93551 23.6244C6.75179 23.821 6.49961 23.937 6.23268 23.948Z" fill="#D92A2A" stroke="#D92A2A" stroke-width="0.5"/>
<path d="M22.1388 0.330414L21.3336 3.53254H1L4.75216 14.7951C4.13018 14.8889 3.56354 15.2099 3.15896 15.6976C2.75439 16.1854 2.53981 16.8061 2.55564 17.443C2.54596 17.7954 2.60563 18.1462 2.73117 18.4749C2.85672 18.8037 3.04563 19.1038 3.28687 19.3579C3.52812 19.6119 3.81687 19.8147 4.1363 19.9544C4.45572 20.0942 4.79941 20.1681 5.14732 20.1718H19.2404V19.1745H5.14732C4.93527 19.1706 4.72614 19.1236 4.53231 19.0364C4.33848 18.9492 4.16388 18.8235 4.01885 18.6667C3.87381 18.5099 3.76127 18.3253 3.6879 18.1237C3.61453 17.9221 3.58182 17.7076 3.59169 17.493C3.58046 17.0617 3.73747 16.6433 4.02868 16.3285C4.31988 16.0138 4.72181 15.828 5.14732 15.8114H19.2866L22.9644 1.3777H25.0365V0.330414H22.1412H22.1388ZM18.5119 14.7641H5.82029L2.45078 4.57983H21.0511L18.5119 14.7641Z" fill="#D92A2A" stroke="#D92A2A" stroke-width="0.5"/>
</svg>
