<svg width="25" height="25" viewBox="0 0 25 25" fill="none" xmlns="http://www.w3.org/2000/svg">
<g clip-path="url(#clip0)">
<path d="M3.66182 25H11.8165V16.113H8.88701V13.1835H11.8165V9.52172C11.8173 8.5507 12.2033 7.61966 12.8898 6.93295C13.5763 6.24624 14.5073 5.85996 15.4783 5.85891H19.1411V8.78836H16.2116C15.8233 8.78889 15.4511 8.94338 15.1765 9.21795C14.9019 9.49253 14.7474 9.86478 14.7469 10.2531V13.1825H19.0096L18.5213 16.112H14.7469V25H21.3392C22.31 24.9989 23.2408 24.6128 23.9273 23.9263C24.6138 23.2398 24.9999 22.309 25.001 21.3382V3.66182C24.9999 2.69079 24.6137 1.75986 23.927 1.07334C23.2402 0.386811 22.3092 0.000791237 21.3382 0L3.66182 0C2.69097 0.00105499 1.76018 0.387191 1.07369 1.07369C0.387191 1.76018 0.00105499 2.69097 0 3.66182L0 21.3382C0.00105499 22.309 0.387191 23.2398 1.07369 23.9263C1.76018 24.6128 2.69097 24.9989 3.66182 25ZM1.46473 3.66182C1.46552 3.07936 1.69725 2.52098 2.10911 2.10911C2.52098 1.69725 3.07936 1.46552 3.66182 1.46473H21.3382C21.9206 1.46552 22.479 1.69725 22.8909 2.10911C23.3027 2.52098 23.5345 3.07936 23.5353 3.66182V21.3382C23.5345 21.9206 23.3027 22.479 22.8909 22.8909C22.479 23.3027 21.9206 23.5345 21.3382 23.5353H16.2106V17.5777H19.7609L20.7373 11.7188H16.2106V10.2541H20.6048V4.39418H15.4783C14.1191 4.39576 12.8161 4.93639 11.855 5.89746C10.8939 6.85853 10.3533 8.16157 10.3517 9.52073V11.7178H7.42228V17.5767H10.3517V23.5353H3.66182C3.07936 23.5345 2.52098 23.3027 2.10911 22.8909C1.69725 22.479 1.46552 21.9206 1.46473 21.3382V3.66182Z" fill="#448EF6"/>
</g>
<defs>
<clipPath id="clip0">
<rect width="25" height="25" fill="white"/>
</clipPath>
</defs>
</svg>
