<svg width="20" height="21" viewBox="0 0 20 21" fill="none" xmlns="http://www.w3.org/2000/svg">
<mask id="path-1-inside-1" fill="white">
<path d="M19.9643 5.96403C19.6718 2.50328 17.398 0.00104876 14.5519 0.00104876C13.6196 0.00683046 12.7047 0.273076 11.8969 0.773685C11.0891 1.27429 10.416 1.99209 9.94383 2.85669C9.49604 1.99472 8.84352 1.27606 8.05293 0.774158C7.26235 0.272256 6.36204 0.00510296 5.44402 0C2.59788 0 0.323117 2.50747 0.0315802 5.96298C-0.0430276 6.72324 0.0148388 7.4918 0.202212 8.22925C0.634084 10.1501 1.60004 11.8838 2.97132 13.1991L9.93798 20.0031L17.0255 13.2033C18.3964 11.8864 19.3613 10.1512 19.7917 8.22925C19.9793 7.49222 20.0379 6.72408 19.9643 5.96403ZM19.0448 8.04048C18.649 9.79714 17.7646 11.3823 16.5097 12.5846L9.94383 18.8873L3.48907 12.5866C2.23413 11.3836 1.34983 9.79775 0.953967 8.04048C0.789631 7.40817 0.734442 6.74883 0.791136 6.09512L0.796986 6.05527C1.0466 3.02763 3.00155 0.829532 5.44402 0.829532C6.34397 0.843385 7.21947 1.14663 7.95781 1.70022C8.69616 2.25382 9.26355 3.03243 9.58696 3.93582L9.9409 4.83876L10.2948 3.93582C10.6409 3.02434 11.2295 2.24309 11.9869 1.6901C12.7442 1.13711 13.6365 0.836998 14.5519 0.827434C16.9943 0.827434 18.9493 3.02973 19.2047 6.09197C19.2632 6.74646 19.2093 7.40693 19.0458 8.04048H19.0448Z"/>
</mask>
<path d="M19.9643 5.96403L18.9678 6.04826L18.969 6.06036L19.9643 5.96403ZM14.5519 0.00104876V-0.99897L14.5457 -0.998932L14.5519 0.00104876ZM9.94383 2.85669L9.05642 3.31769L9.92173 4.98338L10.8215 3.33603L9.94383 2.85669ZM5.44402 0L5.44958 -1H5.44402V0ZM0.0315802 5.96298L1.02689 6.06065L1.02804 6.04705L0.0315802 5.96298ZM0.202212 8.22925L1.17786 8.00989L1.17482 7.9964L1.17142 7.98299L0.202212 8.22925ZM2.97132 13.1991L3.67006 12.4837L3.66356 12.4774L2.97132 13.1991ZM9.93798 20.0031L9.23927 20.7186L9.93178 21.3949L10.6303 20.7247L9.93798 20.0031ZM17.0255 13.2033L17.7178 13.9249L17.7183 13.9244L17.0255 13.2033ZM19.7917 8.22925L18.8226 7.98256L18.8191 7.99659L18.8159 8.01072L19.7917 8.22925ZM19.0448 8.04048V7.04048H18.2451L18.0693 7.82064L19.0448 8.04048ZM16.5097 12.5846L15.8179 11.8625L15.8172 11.8631L16.5097 12.5846ZM9.94383 18.8873L9.24531 19.6029L9.93801 20.2791L10.6363 19.6087L9.94383 18.8873ZM3.48907 12.5866L4.18761 11.871L4.18111 11.8648L3.48907 12.5866ZM0.953967 8.04048L1.92952 7.82072L1.92593 7.80476L1.92181 7.78894L0.953967 8.04048ZM0.791136 6.09512L-0.19826 5.94987L-0.202564 5.97919L-0.205125 6.00872L0.791136 6.09512ZM0.796986 6.05527L1.78638 6.20051L1.79099 6.16909L1.7936 6.13743L0.796986 6.05527ZM5.44402 0.829532L5.45941 -0.17035L5.45172 -0.170468H5.44402V0.829532ZM9.58696 3.93582L8.64547 4.27287L8.6505 4.28689L8.65593 4.30077L9.58696 3.93582ZM9.9409 4.83876L9.00987 5.20371L9.9409 7.57887L10.8719 5.20371L9.9409 4.83876ZM10.2948 3.93582L11.2259 4.30079L11.2297 4.29076L10.2948 3.93582ZM14.5519 0.827434V-0.17262L14.5414 -0.172511L14.5519 0.827434ZM19.2047 6.09197L18.2082 6.17511L18.2087 6.18093L19.2047 6.09197ZM19.0458 8.04048V9.04048H19.8205L20.0141 8.29039L19.0458 8.04048ZM20.9608 5.87981C20.6389 2.07209 18.073 -0.998951 14.5519 -0.998951V1.00105C16.723 1.00105 18.7047 2.93446 18.9679 6.04825L20.9608 5.87981ZM14.5457 -0.998932C13.4256 -0.991986 12.3311 -0.671893 11.3701 -0.076328L12.4236 1.6237C13.0782 1.21804 13.8135 1.00565 14.5581 1.00103L14.5457 -0.998932ZM11.3701 -0.076328C10.4097 0.518828 9.61817 1.36672 9.06619 2.37736L10.8215 3.33603C11.2139 2.61745 11.7684 2.02976 12.4236 1.6237L11.3701 -0.076328ZM10.8312 2.3957C10.3053 1.38331 9.53406 0.529956 8.5889 -0.0700823L7.51697 1.6184C8.15297 2.02217 8.68678 2.60613 9.05642 3.31769L10.8312 2.3957ZM8.5889 -0.0700823C7.64302 -0.670573 6.55947 -0.993815 5.44958 -0.999985L5.43846 0.999985C6.16462 1.00402 6.88167 1.21508 7.51697 1.6184L8.5889 -0.0700823ZM5.44402 -1C1.92254 -1 -0.644094 2.07672 -0.96488 5.87891L1.02804 6.04705C1.29033 2.93822 3.27322 1 5.44402 1V-1ZM-0.963639 5.86532C-1.04951 6.74039 -0.983007 7.62534 -0.766992 8.47551L1.17142 7.98299C1.01268 7.35827 0.963459 6.7061 1.0268 6.06065L-0.963639 5.86532ZM-0.773432 8.44861C-0.300121 10.5538 0.760731 12.4643 2.27909 13.9208L3.66356 12.4774C2.43935 11.3032 1.56829 9.74643 1.17786 8.00989L-0.773432 8.44861ZM2.27261 13.9145L9.23927 20.7186L10.6367 19.2877L3.67003 12.4837L2.27261 13.9145ZM10.6303 20.7247L17.7178 13.9249L16.3332 12.4817L9.24567 19.2815L10.6303 20.7247ZM17.7183 13.9244C19.2361 12.4663 20.2959 10.5541 20.7676 8.44777L18.8159 8.01072C18.4268 9.7483 17.5566 11.3064 16.3327 12.4822L17.7183 13.9244ZM20.7608 8.47593C20.977 7.62648 21.0443 6.74228 20.9597 5.8677L18.969 6.06036C19.0314 6.70588 18.9816 7.35795 18.8226 7.98256L20.7608 8.47593ZM18.0693 7.82064C17.715 9.39298 16.9256 10.8012 15.8179 11.8625L17.2015 13.3066C18.6036 11.9633 19.583 10.2013 20.0204 8.26033L18.0693 7.82064ZM15.8172 11.8631L9.25132 18.1659L10.6363 19.6087L17.2022 13.306L15.8172 11.8631ZM10.6423 18.1717L4.18758 11.8711L2.79056 13.3022L9.24531 19.6029L10.6423 18.1717ZM4.18111 11.8648C3.07325 10.8027 2.28388 9.39373 1.92952 7.82072L-0.0215858 8.26024C0.415782 10.2018 1.39502 11.9644 2.79703 13.3085L4.18111 11.8648ZM1.92181 7.78894C1.78625 7.26733 1.7405 6.72229 1.7874 6.18152L-0.205125 6.00872C-0.271613 6.77536 -0.206985 7.54902 -0.013879 8.29202L1.92181 7.78894ZM1.78053 6.24036L1.78638 6.20051L-0.19241 5.91002L-0.19826 5.94987L1.78053 6.24036ZM1.7936 6.13743C2.01607 3.439 3.69255 1.82953 5.44402 1.82953V-0.170468C2.31054 -0.170468 0.077118 2.61627 -0.199633 5.9731L1.7936 6.13743ZM5.42863 1.82941C6.11189 1.83993 6.78387 2.06989 7.35793 2.50031L8.5577 0.900137C7.65507 0.223364 6.57605 -0.153161 5.45941 -0.17035L5.42863 1.82941ZM7.35793 2.50031C7.93304 2.93151 8.38533 3.5462 8.64547 4.27287L10.5285 3.59877C10.1418 2.51865 9.45928 1.57612 8.5577 0.900137L7.35793 2.50031ZM8.65593 4.30077L9.00987 5.20371L10.8719 4.47381L10.518 3.57087L8.65593 4.30077ZM10.8719 5.20371L11.2259 4.30077L9.36381 3.57087L9.00987 4.47381L10.8719 5.20371ZM11.2297 4.29076C11.5099 3.55285 11.9821 2.93176 12.5766 2.49772L11.3972 0.882482C10.4769 1.55443 9.77191 2.49584 9.35995 3.58087L11.2297 4.29076ZM12.5766 2.49772C13.17 2.06442 13.8608 1.83471 14.5623 1.82738L14.5414 -0.172511C13.4123 -0.160713 12.3184 0.209792 11.3972 0.882482L12.5766 2.49772ZM14.5519 1.82743C16.2991 1.82743 17.9797 3.43593 18.2082 6.17511L20.2013 6.00884C19.9189 2.62353 17.6896 -0.172566 14.5519 -0.172566V1.82743ZM18.2087 6.18093C18.2571 6.72221 18.2124 7.26805 18.0775 7.79058L20.0141 8.29039C20.2063 7.54582 20.2694 6.77072 20.2008 6.00301L18.2087 6.18093ZM19.0458 7.04048H19.0448V9.04048H19.0458V7.04048Z" fill="white" mask="url(#path-1-inside-1)"/>
</svg>
