<svg width="25" height="25" viewBox="0 0 25 25" fill="none" xmlns="http://www.w3.org/2000/svg">
<path d="M3.66169 25H21.3342C22.305 24.9989 23.2357 24.6128 23.9222 23.9263C24.6087 23.2399 24.9948 22.3091 24.9959 21.3383V3.66169C24.9948 2.69088 24.6087 1.76015 23.9222 1.07368C23.2357 0.387219 22.305 0.00108591 21.3342 0L3.66169 0C2.69088 0.00108591 1.76015 0.387219 1.07368 1.07368C0.387219 1.76015 0.00108591 2.69088 0 3.66169L0 21.3342C-6.08459e-07 22.3057 0.385652 23.2375 1.07223 23.9249C1.75882 24.6122 2.69017 24.9989 3.66169 25ZM1.46468 3.66169C1.46549 3.07925 1.69722 2.52091 2.10906 2.10906C2.52091 1.69722 3.07925 1.46549 3.66169 1.46468H21.3342C21.9174 1.4644 22.4768 1.69565 22.8895 2.10762C23.3022 2.51958 23.5345 3.07854 23.5353 3.66169V21.3342C23.5355 21.6233 23.4786 21.9096 23.368 22.1767C23.2575 22.4438 23.0954 22.6865 22.8909 22.8909C22.6865 23.0954 22.4438 23.2575 22.1767 23.368C21.9096 23.4786 21.6233 23.5355 21.3342 23.5353H3.66169C3.07854 23.5345 2.51958 23.3022 2.10762 22.8895C1.69565 22.4768 1.4644 21.9174 1.46468 21.3342V3.66169Z" fill="#C0C0C0"/>
<path d="M12.5 19.092C13.8038 19.092 15.0783 18.7054 16.1624 17.9811C17.2464 17.2567 18.0914 16.2272 18.5903 15.0226C19.0892 13.8181 19.2198 12.4927 18.9654 11.2139C18.7111 9.93519 18.0832 8.76059 17.1613 7.83867C16.2394 6.91676 15.0648 6.28892 13.7861 6.03456C12.5073 5.78021 11.1819 5.91076 9.97735 6.4097C8.7728 6.90863 7.74327 7.75356 7.01892 8.83762C6.29458 9.92168 5.90796 11.1962 5.90796 12.5C5.90986 14.2477 6.60499 15.9233 7.84083 17.1592C9.07667 18.395 10.7523 19.0901 12.5 19.092ZM12.5 7.37361C13.5143 7.37361 14.5059 7.67438 15.3492 8.2379C16.1926 8.80142 16.8499 9.60236 17.2381 10.5395C17.6262 11.4766 17.7278 12.5077 17.5299 13.5025C17.332 14.4973 16.8436 15.4111 16.1264 16.1284C15.4091 16.8456 14.4953 17.334 13.5005 17.5319C12.5057 17.7298 11.4746 17.6282 10.5375 17.2401C9.60037 16.8519 8.79942 16.1946 8.2359 15.3512C7.67239 14.5078 7.37161 13.5163 7.37161 12.502C7.37148 11.8285 7.50402 11.1615 7.76169 10.5391C8.01936 9.91682 8.39709 9.35135 8.87332 8.87502C9.34956 8.3987 9.91495 8.02085 10.5372 7.76306C11.1595 7.50527 11.8265 7.37258 12.5 7.37258V7.37361Z" fill="#C0C0C0"/>
<path d="M19.8244 7.37365C20.2589 7.37365 20.6836 7.24482 21.0449 7.00345C21.4062 6.76209 21.6877 6.41902 21.8541 6.01763C22.0204 5.61624 22.064 5.17454 21.9793 4.74839C21.8946 4.32224 21.6854 3.93077 21.3783 3.62347C21.0711 3.31617 20.6797 3.10684 20.2536 3.02195C19.8275 2.93707 19.3858 2.98043 18.9844 3.14656C18.5829 3.31269 18.2397 3.59412 17.9981 3.95529C17.7566 4.31645 17.6276 4.74112 17.6274 5.1756C17.6279 5.75821 17.8595 6.31683 18.2714 6.72889C18.6833 7.14096 19.2418 7.37283 19.8244 7.37365ZM19.8244 4.44429C19.9692 4.44429 20.1108 4.48724 20.2312 4.56771C20.3517 4.64818 20.4455 4.76256 20.501 4.89637C20.5564 5.03019 20.5709 5.17744 20.5427 5.3195C20.5144 5.46156 20.4447 5.59205 20.3422 5.69447C20.2398 5.79689 20.1093 5.86664 19.9673 5.8949C19.8252 5.92315 19.678 5.90865 19.5442 5.85322C19.4103 5.79779 19.296 5.70393 19.2155 5.58349C19.135 5.46306 19.0921 5.32147 19.0921 5.17663C19.0921 4.98231 19.1692 4.79593 19.3065 4.65843C19.4438 4.52092 19.6301 4.44354 19.8244 4.44327V4.44429Z" fill="#C0C0C0"/>
</svg>
