<svg width="20" height="10" viewBox="0 0 20 10" fill="none" xmlns="http://www.w3.org/2000/svg">
<path d="M10.4018 9.84593L19.8388 0.915706C19.943 0.814819 20.0009 0.679132 20 0.538089C19.9991 0.397047 19.9395 0.262028 19.834 0.162334C19.7286 0.0626398 19.5859 0.00631327 19.4368 0.00557774C19.2878 0.0048422 19.1444 0.059757 19.0379 0.158405L10.0032 8.70725L0.968531 0.1578C0.916084 0.107796 0.853697 0.068109 0.784967 0.0410262C0.716236 0.0139433 0.642521 0 0.568069 0C0.493618 0 0.419903 0.0139433 0.351173 0.0410262C0.282442 0.068109 0.220057 0.107796 0.16761 0.1578C0.061512 0.257768 0.001297 0.393261 5.72205e-06 0.534937C-0.000310898 0.605237 0.01437 0.674874 0.0431709 0.739677C0.07197 0.804481 0.114294 0.863117 0.16761 0.912074L9.60531 9.84169C9.65729 9.89148 9.71914 9.93109 9.78731 9.95825C9.85548 9.98541 9.92863 9.9996 10.0026 9.99999C10.0766 10.0004 10.1499 9.98698 10.2184 9.96055C10.2869 9.93411 10.3492 9.89516 10.4018 9.84593Z" fill="#0A283E"/>
</svg>
