<svg width="25" height="25" viewBox="0 0 25 25" fill="none" xmlns="http://www.w3.org/2000/svg">
<path d="M24.7833 23.7249L18.7071 17.65C20.5212 15.5633 21.4542 12.8539 21.3094 10.0929C21.1646 7.33196 19.9533 4.73502 17.9307 2.84949C15.9082 0.963961 13.2325 -0.0628753 10.4676 -0.0145913C7.70261 0.0336927 5.0644 1.15333 3.10898 3.10832C1.15356 5.06332 0.0336882 7.70096 -0.0146062 10.4653C-0.0629006 13.2297 0.964156 15.9048 2.85009 17.9269C4.73603 19.949 7.33352 21.16 10.0951 21.3048C12.8567 21.4496 15.5666 20.5168 17.6538 18.7031L23.73 24.778C23.8696 24.9183 24.0588 24.9981 24.2567 25.0001C24.3549 25.0004 24.4522 24.9809 24.5426 24.9427C24.6331 24.9046 24.715 24.8485 24.7833 24.778C24.9218 24.6377 24.9995 24.4486 24.9995 24.2515C24.9995 24.0544 24.9218 23.8652 24.7833 23.7249ZM1.49585 10.6599C1.49692 8.84778 2.0354 7.07668 3.04322 5.57054C4.05103 4.06439 5.48291 2.89085 7.15781 2.19828C8.83271 1.50572 10.6754 1.32525 12.4529 1.67968C14.2304 2.03412 15.8628 2.90755 17.1438 4.18952C18.4248 5.4715 19.2968 7.10445 19.6496 8.8819C20.0024 10.6594 19.8201 12.5015 19.1257 14.1753C18.4314 15.8492 17.2562 17.2796 15.7487 18.2857C14.2413 19.2919 12.4693 19.8285 10.6568 19.8278C8.22537 19.8252 5.89441 18.8578 4.1759 17.1382C2.45738 15.4185 1.49185 13.0872 1.49138 10.6563L1.49585 10.6599Z" fill="#0A283E"/>
</svg>
