<svg width="25" height="25" viewBox="0 0 25 25" fill="none" xmlns="http://www.w3.org/2000/svg">
<path d="M24.7809 12.5C24.7826 10.4573 24.2747 8.44642 23.3032 6.64952C22.3317 4.85262 20.9273 3.32644 19.2172 2.20923C17.5071 1.09201 15.5453 0.419038 13.5095 0.251266C11.4737 0.0834935 9.42815 0.426219 7.55821 1.2484C5.68827 2.07059 4.05296 3.34625 2.8004 4.95987C1.54783 6.57349 0.717584 8.47407 0.384842 10.4895C0.0520993 12.5049 0.227376 14.5715 0.894798 16.5021C1.56222 18.4327 2.7007 20.1663 4.20713 21.546L4.1957 21.5565L4.59424 21.8926C4.61975 21.9146 4.64791 21.9322 4.6743 21.9542C4.88633 22.1301 5.1054 22.2964 5.32886 22.4574C5.401 22.5093 5.47315 22.5621 5.54705 22.6131C5.78576 22.7774 6.03005 22.9334 6.27991 23.0812L6.44443 23.1762C6.71804 23.3319 6.99781 23.4789 7.28374 23.6161L7.34709 23.6443C8.2928 24.0834 9.29103 24.3992 10.3172 24.5839L10.3991 24.5988C10.7219 24.6542 11.0492 24.6991 11.38 24.729L11.5014 24.7387C11.8314 24.766 12.1639 24.7836 12.5018 24.7836C12.8396 24.7836 13.166 24.766 13.4942 24.7396L13.6191 24.7299C13.9475 24.7 14.2716 24.6572 14.5912 24.6015L14.6748 24.5865C15.6856 24.4054 16.6694 24.0971 17.6028 23.6689L17.7048 23.6223C17.9805 23.4926 18.25 23.3533 18.5133 23.2044L18.7095 23.0917C18.9497 22.9501 19.1864 22.8023 19.4134 22.6448C19.4961 22.5885 19.577 22.5296 19.6588 22.4689C19.855 22.3281 20.0477 22.182 20.2342 22.029C20.2755 21.9955 20.3222 21.9665 20.3609 21.9322L20.7691 21.5908L20.7568 21.5803C22.0244 20.4317 23.0374 19.0303 23.7305 17.4663C24.4236 15.9024 24.7814 14.2106 24.7809 12.5ZM1.11469 12.5C1.11308 10.5979 1.58797 8.72576 2.49598 7.05442C3.40399 5.38308 4.71621 3.96582 6.31281 2.93204C7.90942 1.89825 9.73955 1.28088 11.6361 1.13629C13.5327 0.991692 15.4353 1.32448 17.1701 2.10428C18.905 2.88407 20.4169 4.08603 21.5678 5.6004C22.7187 7.11477 23.4719 8.89331 23.7587 10.7736C24.0454 12.654 23.8566 14.5762 23.2094 16.3648C22.5623 18.1533 21.4774 19.7513 20.0538 21.0128C19.9267 20.9236 19.7936 20.8433 19.6553 20.7726L15.8722 18.882C15.7065 18.7998 15.5672 18.6728 15.47 18.5154C15.3728 18.358 15.3217 18.1766 15.3224 17.9916V16.6719C15.4103 16.5637 15.4983 16.4414 15.5977 16.3068C16.0934 15.6034 16.4867 14.8333 16.7661 14.0194C17.0447 13.8883 17.2802 13.6806 17.4451 13.4206C17.6099 13.1605 17.6973 12.8589 17.6969 12.551V10.9674C17.6952 10.5795 17.5547 10.2051 17.301 9.91167V7.8257C17.378 6.87606 17.0755 5.93461 16.4599 5.20745C15.9413 4.6998 15.3188 4.31049 14.6354 4.06628C13.952 3.82207 13.2238 3.72876 12.5009 3.79276C11.778 3.72888 11.0498 3.82224 10.3664 4.06645C9.68299 4.31065 9.06055 4.6999 8.54184 5.20745C7.9256 5.93434 7.62253 6.87582 7.699 7.8257V9.90991C7.44539 10.2034 7.30499 10.5778 7.3031 10.9657V12.5493C7.30299 12.7905 7.35662 13.0288 7.46011 13.2467C7.56359 13.4646 7.71432 13.6567 7.90135 13.8091C8.17621 14.8396 8.645 15.8082 9.28262 16.6631V17.9556C9.28265 18.1345 9.23446 18.3102 9.14312 18.4641C9.05177 18.6179 8.92065 18.7444 8.76355 18.8301L5.2356 20.7559C5.11931 20.8199 5.00707 20.891 4.89953 20.9688C3.70817 19.903 2.75517 18.5978 2.10282 17.1384C1.45047 15.6791 1.11345 14.0985 1.11381 12.5H1.11469ZM19.1811 21.7131C19.0251 21.8263 18.8661 21.9357 18.7042 22.0413C18.6303 22.0897 18.5564 22.1381 18.4808 22.1847C18.2696 22.3149 18.0558 22.4389 17.8368 22.5551L17.6916 22.6299C17.1896 22.8878 16.6691 23.1081 16.1344 23.2888L16.0781 23.3082C15.7983 23.4008 15.515 23.483 15.2282 23.5545C14.9388 23.6258 14.6458 23.6856 14.3484 23.7305L14.3247 23.7349C14.0475 23.7797 13.7678 23.8123 13.4871 23.8369L13.3376 23.8484C13.0604 23.8695 12.7815 23.8827 12.5018 23.8827C12.222 23.8827 11.9361 23.8686 11.6554 23.8475L11.5102 23.836C11.2269 23.8114 10.9454 23.778 10.6665 23.7322L10.6287 23.7252C10.0393 23.6266 9.45857 23.4815 8.89199 23.2915L8.83921 23.2739C8.55826 23.1783 8.28113 23.0721 8.00781 22.9554H8.00165C7.74387 22.8445 7.4905 22.7214 7.24064 22.5911L7.14298 22.541C6.91511 22.4187 6.69165 22.2876 6.4717 22.1495L6.27727 22.0246C6.07492 21.8917 5.87433 21.7536 5.6799 21.6075L5.62007 21.5609L5.66318 21.5372L9.19464 19.614C9.49264 19.4515 9.74136 19.2118 9.91461 18.9199C10.0879 18.6281 10.1792 18.2949 10.1791 17.9556V16.3473L10.0744 16.2233C9.43934 15.4014 8.98295 14.456 8.73451 13.4475L8.69404 13.2716L8.54184 13.173C8.43706 13.1065 8.35071 13.0146 8.29075 12.9059C8.23079 12.7972 8.19914 12.6752 8.19872 12.551V10.9674C8.19907 10.8639 8.22146 10.7616 8.26438 10.6674C8.30731 10.5732 8.3698 10.4892 8.4477 10.4211L8.59463 10.2882V7.80018V7.74212C8.53816 7.03632 8.76229 6.33673 9.21839 5.79515C9.65603 5.38711 10.1757 5.0771 10.7426 4.88579C11.3095 4.69448 11.9108 4.62628 12.5062 4.68574C13.0998 4.62723 13.6991 4.69513 14.2645 4.88499C14.83 5.07485 15.3488 5.38234 15.7869 5.78723C16.2403 6.33367 16.4633 7.03504 16.4089 7.743V10.2891L16.5558 10.4219C16.6337 10.4902 16.6961 10.5742 16.739 10.6683C16.782 10.7625 16.8044 10.8648 16.8048 10.9683V12.5519C16.8027 12.71 16.7505 12.8634 16.6556 12.9899C16.5608 13.1164 16.4281 13.2095 16.2769 13.2557L16.057 13.3226L15.9857 13.5434C15.7303 14.3455 15.3538 15.1038 14.8693 15.7922C14.7522 15.9576 14.6388 16.1036 14.5402 16.2162L14.4294 16.3429V17.9916C14.4281 18.3427 14.5253 18.687 14.7099 18.9856C14.8945 19.2842 15.1591 19.525 15.4737 19.6808L19.2568 21.5715L19.328 21.6084C19.2787 21.6454 19.2295 21.6788 19.1811 21.7131Z" fill="#C0C0C0"/>
</svg>
